<svg xmlns="http://www.w3.org/2000/svg" viewBox="0 0 226.77 76.67"><defs><style>.cls-1{fill:#231815;}</style></defs><title>校名（黑色）-Vector</title><g id="黑色"><g id="校名毛笔字"><g id="学"><path id="_路径_" data-name="&lt;路径&gt;" class="cls-1" d="M33.74,49.27a16.39,16.39,0,0,0-2,2.73c-.56.81-1.11,1.61-1.75,2.37a1.72,1.72,0,0,1-2.08.5,5.31,5.31,0,0,1-2.28-1.15,1.23,1.23,0,0,1-.26-1.35A13.35,13.35,0,0,1,27.43,49c1-1.41,2.11-2.81,3.23-4.16a24.56,24.56,0,0,1,2.12-2.45.93.93,0,0,0,.21-.42,3.69,3.69,0,0,0-1.06.5c-2.13,1.22-4.27,2.41-6.29,3.82a37.51,37.51,0,0,0-3.44,2.95,19.39,19.39,0,0,1-3.82,3,8.49,8.49,0,0,1-2,.7,1.91,1.91,0,0,1-1.58-.39,21.73,21.73,0,0,0-5.24-2.62,3.46,3.46,0,0,1-1.66-1.11,1.28,1.28,0,0,1,0-.63,3,3,0,0,1,2-2.38c1.82-.86,3.69-1.59,5.54-2.38q2.25-1,4.49-2,4.26-1.89,8.52-3.78c2.48-1.11,5-2.22,7.42-3.37a1.13,1.13,0,0,0,.59-1.73A1.63,1.63,0,0,1,36,31.27a1.9,1.9,0,0,1,1.68-1.51c.58-.13,1.16-.23,1.74-.35.17-.09.38,0,.55-.08l.52,0a4.45,4.45,0,0,1,1.16,0c1.17.35,1.62,1.35,2.13,2.31a.54.54,0,0,1-.1.62,1.46,1.46,0,0,0-.28.59H44a1.53,1.53,0,0,1,1.52.91c.38.75.77,1.5,1.07,2.28a2.24,2.24,0,0,1,0,.73,2.52,2.52,0,0,1-1.35,1.34,25.37,25.37,0,0,1-2.89,1.35,2.86,2.86,0,0,0-1.6,2c-.12.34.17.22.35.16a6.64,6.64,0,0,0,2.71-1.77,1.64,1.64,0,0,1,.73,0c.71.43,1.28,1.06,2,1.44a2.1,2.1,0,0,1,1.07,1.24,4,4,0,0,1,0,1,6.46,6.46,0,0,1-1.42,2.37c-.74.93-1.31,2-2.08,2.9a15.31,15.31,0,0,1-2.46,2.3c-.41.32-1,.17-1.44.14a3.45,3.45,0,0,1-1-.21c-.39-.15-.57,0-.74.34a25.51,25.51,0,0,0-1.15,3.25c-.31.85-.6,1.71-.94,2.56a.48.48,0,0,0,.19.67,3.61,3.61,0,0,1,1.66,2.45,4.69,4.69,0,0,1,0,1.16c-.22,1.11-1.06,1.87-1.61,2.8-.28.48-.62.93-1,1.53,1.52-.62,2.81-1.39,4.21-1.9.29-.1.59,0,.88-.08l.29,0a1.45,1.45,0,0,1,.62,0c.16.14.32.28.46.43a1,1,0,0,1,.24,1.37,12.38,12.38,0,0,1-.6,1.1,1.62,1.62,0,0,0-.12,1.54c.07.19.09.41.15.61a.79.79,0,0,1-.52,1.09c-.72.27-1.45.52-2.17.77-1.88.64-3.76,1.29-5.65,1.92-.65.21-1.31.37-2,.55a2.27,2.27,0,0,1-.73,0c-.66-.2-1-.76-1.35-1.27s-.48-.86-.79-1.22a1.62,1.62,0,0,1-.1-2A18.37,18.37,0,0,0,30,65.45c.42-1.67,1-3.3,1.48-4.94.11-.37.15-.68-.42-.82a1.3,1.3,0,0,1-1-1.41,4.19,4.19,0,0,1,0-1c.12-.89.11-.9,1-1.09a1.17,1.17,0,0,0,.88-.92c.52-1.64,1.06-3.26,1.69-4.86a6.19,6.19,0,0,0,.19-.75C33.86,49.48,34,49.31,33.74,49.27Z"/><path id="_路径_2" data-name="&lt;路径&gt;" class="cls-1" d="M40.82,12.13a4,4,0,0,1,1.76-2.71,4.9,4.9,0,0,1,2-1.15,1.6,1.6,0,0,1,.62,0,4.23,4.23,0,0,1,.9.64,1.2,1.2,0,0,1,.37.94,5.29,5.29,0,0,0,.37,2,1.4,1.4,0,0,0,.43.58,4.09,4.09,0,0,1,1.42,1.73A3.59,3.59,0,0,1,48.24,17a37,37,0,0,1-4,5.54,21.46,21.46,0,0,1-2.83,3c-.71.58-1.48,1.07-2.18,1.65q-1.94,1.64-3.8,3.36a27.14,27.14,0,0,0-3.36,3.66,4.1,4.1,0,0,1-1.85,1.54,1.49,1.49,0,0,1-.62,0,2.56,2.56,0,0,1-1.29-1.17.44.44,0,0,1,0-.44,29.89,29.89,0,0,1,3.46-6.1c1.52-2.15,3-4.34,4.47-6.53,1.14-1.68,2.38-3.3,3.58-4.93a5,5,0,0,0,1-2.58C40.87,13.41,40.72,12.77,40.82,12.13Z"/><path id="_路径_3" data-name="&lt;路径&gt;" class="cls-1" d="M40.82,12.13A16.27,16.27,0,0,1,40.74,14,8.3,8.3,0,0,1,40.82,12.13Z"/><path id="_路径_4" data-name="&lt;路径&gt;" class="cls-1" d="M41.68,29.3H40.52A1.68,1.68,0,0,1,41.68,29.3Z"/><path id="_路径_5" data-name="&lt;路径&gt;" class="cls-1" d="M38.31,61.46V60.31A1.7,1.7,0,0,1,38.31,61.46Z"/><path id="_路径_6" data-name="&lt;路径&gt;" class="cls-1" d="M47.65,43.53v-1A1.4,1.4,0,0,1,47.65,43.53Z"/><path id="_路径_7" data-name="&lt;路径&gt;" class="cls-1" d="M30.1,57.23v1A1.43,1.43,0,0,1,30.1,57.23Z"/><path id="_路径_8" data-name="&lt;路径&gt;" class="cls-1" d="M40.77,63.81c-.28.15-.59.05-.88.08C40.17,63.71,40.47,63.83,40.77,63.81Z"/><path id="_路径_9" data-name="&lt;路径&gt;" class="cls-1" d="M46.6,36.74V36A.76.76,0,0,1,46.6,36.74Z"/><path id="_路径_10" data-name="&lt;路径&gt;" class="cls-1" d="M30.77,73.17h.73A.77.77,0,0,1,30.77,73.17Z"/><path id="_路径_11" data-name="&lt;路径&gt;" class="cls-1" d="M44.55,39.81h-.73A.7.7,0,0,1,44.55,39.81Z"/><path id="_路径_12" data-name="&lt;路径&gt;" class="cls-1" d="M41.68,63.78h-.62A.55.55,0,0,1,41.68,63.78Z"/><path id="_路径_13" data-name="&lt;路径&gt;" class="cls-1" d="M45.18,8.29l-.62,0A.56.56,0,0,1,45.18,8.29Z"/><path id="_路径_14" data-name="&lt;路径&gt;" class="cls-1" d="M29.6,35.81h.62A.55.55,0,0,1,29.6,35.81Z"/><path id="_路径_15" data-name="&lt;路径&gt;" class="cls-1" d="M7.93,48.1v.63A.53.53,0,0,1,7.93,48.1Z"/><path id="_路径_16" data-name="&lt;路径&gt;" class="cls-1" d="M40,29.32a1,1,0,0,1-.55.08C39.63,29.25,39.82,29.34,40,29.32Z"/><path id="_路径_17" data-name="&lt;路径&gt;" class="cls-1" d="M33.74,49.27c.36,0,.14.21.11.34C33.83,49.49,33.86,49.35,33.74,49.27Z"/></g><g id="大"><path id="_路径_18" data-name="&lt;路径&gt;" class="cls-1" d="M146.44,42.89l0,.52c-.11.17,0,.37-.08.54l0,.52c-.1.17,0,.37-.08.54l0,.52c-.11.17,0,.36-.08.54-.06.35.24.24.34.21,1.41-.5,2.94-.58,4.3-1.25a1.67,1.67,0,0,0,.62-.47.72.72,0,0,0,0-1,3.17,3.17,0,0,1-.85-2.39c0-.49.32-.73.68-.43a2.89,2.89,0,0,0,2.58.47,1.22,1.22,0,0,1,1,.2c.44.33,1,.17,1.47.31A2.16,2.16,0,0,1,157.79,43a6.61,6.61,0,0,1,0,1.26,4.38,4.38,0,0,1-2.45,3.39,34.24,34.24,0,0,1-7.64,3.09c-.57.15-1.13.36-1.69.56-.13,0-.32.09-.35.28s0,.36-.08.53a4.17,4.17,0,0,0,1.21,1.8,31.82,31.82,0,0,1,4,5.54,9.6,9.6,0,0,0,5.07,4.45,11.5,11.5,0,0,0,3.25.75c.21.1.44,0,.66.07l.52,0c.17.11.37,0,.55.09,1,.46,1,.63.29,1.47a7.94,7.94,0,0,1-2.48,2.22l-.15,0c-.17.08-.37,0-.53.08l-1.38.13a4.63,4.63,0,0,1-1,0,8.37,8.37,0,0,0-3.2.21,1.28,1.28,0,0,1-.52,0,1.39,1.39,0,0,1-1.1-.89,66.65,66.65,0,0,1-3.06-6.47,37.76,37.76,0,0,0-3.13-6.55,5.65,5.65,0,0,0-.29,1.28,9.58,9.58,0,0,1-2.32,4.18,9.56,9.56,0,0,1-3.24,2.72,17.24,17.24,0,0,1-3.25,1,22.33,22.33,0,0,1-2.83.48,22.93,22.93,0,0,1-2.43,0,3.47,3.47,0,0,1-2.56-1.16,2.82,2.82,0,0,1,.06-2.66.2.2,0,0,1,.28,0,3.36,3.36,0,0,0,3,.15A17,17,0,0,0,135.7,59a9.59,9.59,0,0,0,3.39-4.52c.25-.63.22-.64-.44-.56a2.37,2.37,0,0,0-1.65,1,7.26,7.26,0,0,1-2.05,1.7c-.23.16-.41,0-.55-.16a5.25,5.25,0,0,1-.68-.67,3,3,0,0,0-1.58-1,.76.76,0,0,1-.56-.69,4,4,0,0,1,1.2-3.07,1.18,1.18,0,0,1,.5-.26c1.9-.6,3.81-1.18,5.7-1.81a3,3,0,0,0,2-2.56c.29-1.49.47-3,.72-4.49s.35-2.74.54-4.11.44-2.87.63-4.3c.13-.92.21-1.85.32-2.78.11-.16,0-.36.08-.53.31-.82-.29-1.1-.82-1.47-.69-.47-.7-.85-.13-1.42.21-.21.38-.46.59-.67A5.49,5.49,0,0,1,146.55,25a.64.64,0,0,1,.66.35,14.3,14.3,0,0,0,2,2.53,2.31,2.31,0,0,1,0,3.15,9.71,9.71,0,0,0-1.95,4.85,31.82,31.82,0,0,0-.54,4.48c-.11.17,0,.37-.08.54a6.08,6.08,0,0,0-.13,1.48C146.41,42.52,146.51,42.72,146.44,42.89Z"/><path id="_路径_19" data-name="&lt;路径&gt;" class="cls-1" d="M130.19,64.78h2.43A7.37,7.37,0,0,1,130.19,64.78Z"/><path id="_路径_20" data-name="&lt;路径&gt;" class="cls-1" d="M157.8,44.27V43A2.08,2.08,0,0,1,157.8,44.27Z"/><path id="_路径_21" data-name="&lt;路径&gt;" class="cls-1" d="M155.55,68.82h1A1.47,1.47,0,0,1,155.55,68.82Z"/><path id="_路径_22" data-name="&lt;路径&gt;" class="cls-1" d="M159.78,64.73a1.2,1.2,0,0,1-.66-.07C159.34,64.67,159.57,64.58,159.78,64.73Z"/><path id="_路径_23" data-name="&lt;路径&gt;" class="cls-1" d="M143.31,30.17a.82.82,0,0,1-.08.53C143.25,30.52,143.17,30.33,143.31,30.17Z"/><path id="_路径_24" data-name="&lt;路径&gt;" class="cls-1" d="M146.33,44a.88.88,0,0,1,.08-.54C146.4,43.6,146.48,43.79,146.33,44Z"/><path id="_路径_25" data-name="&lt;路径&gt;" class="cls-1" d="M146.23,45a1,1,0,0,1,.08-.54C146.29,44.65,146.37,44.85,146.23,45Z"/><path id="_路径_26" data-name="&lt;路径&gt;" class="cls-1" d="M160.84,64.85a1.06,1.06,0,0,1-.55-.09C160.48,64.78,160.68,64.69,160.84,64.85Z"/><path id="_路径_27" data-name="&lt;路径&gt;" class="cls-1" d="M146.12,46.08a.89.89,0,0,1,.08-.54C146.18,45.72,146.26,45.91,146.12,46.08Z"/><path id="_路径_28" data-name="&lt;路径&gt;" class="cls-1" d="M145.59,52.13a.87.87,0,0,1,.08-.53C145.65,51.77,145.73,52,145.59,52.13Z"/><path id="_路径_29" data-name="&lt;路径&gt;" class="cls-1" d="M146.44,42.89a.89.89,0,0,1,.08-.54C146.5,42.54,146.58,42.73,146.44,42.89Z"/><path id="_路径_30" data-name="&lt;路径&gt;" class="cls-1" d="M146.65,40.88a.91.91,0,0,1,.08-.54C146.71,40.52,146.8,40.72,146.65,40.88Z"/><path id="_路径_31" data-name="&lt;路径&gt;" class="cls-1" d="M151.83,69h.52A.42.42,0,0,1,151.83,69Z"/><path id="_路径_32" data-name="&lt;路径&gt;" class="cls-1" d="M158,68.68a.79.79,0,0,1,.53-.08C158.35,68.74,158.15,68.66,158,68.68Z"/></g><g id="庆"><path id="_路径_33" data-name="&lt;路径&gt;" class="cls-1" d="M91.57,43.14a.58.58,0,0,0-.76.22c-1.28,1.57-2.32,3.29-3.52,4.91-2,2.72-4.07,5.41-6.1,8.12C79.78,58.27,78.41,60.19,77,62a60.25,60.25,0,0,0-4.08,5.42c-.74,1.21-1.39,2.47-2.16,3.66a4.76,4.76,0,0,1-2.37,2.08,2.36,2.36,0,0,1-3.21-2.06,7.7,7.7,0,0,1,0-1.27c.11-.17,0-.37.08-.55a9.37,9.37,0,0,1,2.36-5.06c1.29-1.33,2.69-2.54,4-3.86a45.17,45.17,0,0,0,3.16-3.63c.85-1.08,1.73-2.14,2.61-3.2s1.68-2.09,2.58-3.08c1.21-1.33,2.28-2.77,3.46-4.12s2.1-2.51,3.1-3.79c.77-1,1.69-1.83,2.55-2.73L92.72,36c1.16-1.22,2.31-2.45,3.46-3.68.59-.63,1.17-1.26,1.78-1.87.14-.14.38-.32.2-.57s-.38,0-.56,0a80.66,80.66,0,0,1-10,3.11,5.46,5.46,0,0,1-3.34-.18A3.14,3.14,0,0,1,82.47,31a3.65,3.65,0,0,0-1.35-1.49.88.88,0,0,1-.3-1.07,1.76,1.76,0,0,1,1.35-1.31,8.11,8.11,0,0,1,2.06-.35c.77-.07,1.54,0,2.31,0a1.25,1.25,0,0,0,.57,0,22.08,22.08,0,0,0,5.47-.9c.59-.13,1.17-.36,1.76-.53.27-.08.38-.16.13-.4-.65-.65-1.38-1.22-2.08-1.81a5.3,5.3,0,0,1-2.24-3.38,5.58,5.58,0,0,1,0-1.15,1.64,1.64,0,0,1,1-1.2,3.76,3.76,0,0,1,.94,0A19.16,19.16,0,0,1,95,18.56a19.73,19.73,0,0,0,2.89,1.24,7.29,7.29,0,0,0,2.32.38,2.36,2.36,0,0,1,1.5.54,8.7,8.7,0,0,0,1.21.83,1.64,1.64,0,0,1,.86,1.24c.07.28.05.65.39.64a.88.88,0,0,0,.77-.62,2,2,0,0,1,.36-.78,1.68,1.68,0,0,1,2.32-.19A13.26,13.26,0,0,0,109,23.1a2.35,2.35,0,0,1,.78,1.46c.13.53.23,1.06.35,1.59.07.18,0,.38.08.55.14,1.15-.8,1.45-1.53,1.88a21.69,21.69,0,0,1-3.13,1.32c-1,.38-1.76,1.06-2.68,1.52-.6.31-1.18.67-1.77,1a1.55,1.55,0,0,0-.26.18c-.15.13-.33.32-.25.48s.34.21.56.11a1.29,1.29,0,0,1,.36-.06c.18-.08.38,0,.55-.08a3.87,3.87,0,0,0,1.57-.36,1.42,1.42,0,0,1,.51,0c.88.58.91.71.56,1.69-.12.33-.42.75-.17,1s.64-.05,1-.1l.36-.06a2.46,2.46,0,0,1,.73,0,1.92,1.92,0,0,1,1.3,1.25c.24.71.89,1.21,1.06,2,.08.17,0,.38.08.55a1.17,1.17,0,0,1-.66,1.21,23.45,23.45,0,0,1-3,1.54,10.7,10.7,0,0,0-1.17.68.33.33,0,0,0-.17.4c.08.24.25.1.39.09a3.22,3.22,0,0,0,.87-.16,2.41,2.41,0,0,1,.84,0c.39.27.78.53,1.16.8a3.74,3.74,0,0,1,1.71,2.81c-.12.28,0,.57-.07.85s-.14.82-.26,1.22a1.35,1.35,0,0,1-1.15.93c-.84.07-1.68,0-2.52,0a1.23,1.23,0,0,0-.57,0,2.52,2.52,0,0,0-1.49.81c-.17.19-.31.36.12.51a1.09,1.09,0,0,1,.33,1.69,4.55,4.55,0,0,0-.37.44c-.44.59-.42.56.25.91a5.41,5.41,0,0,1,2.35,2.39,1,1,0,0,1-.06,1.08,51.88,51.88,0,0,1-2.78,4.47c-.12.17-.16.3,0,.46a6.52,6.52,0,0,0,2.37,2,1.06,1.06,0,0,0,.36,0c.21.1.44,0,.66.07a.58.58,0,0,1,.43.68c-.11,1.68-.5,2.59-2.55,3.29a6.32,6.32,0,0,1-1.26,0A3.62,3.62,0,0,1,100.2,67c-.27-.3-.33-.75-.63-1.05s-.26-.18-.41,0a4.76,4.76,0,0,1-1,1.44,2.1,2.1,0,0,1-.74.37,2.81,2.81,0,0,1-.84,0l-.42,0c-.16-.12-.36,0-.53-.08A13.09,13.09,0,0,1,93,67.09c-.75-.23-1-.67-.64-1.37a3.13,3.13,0,0,1,1.09-1.55A.65.65,0,0,1,94,64a1.62,1.62,0,0,0,1.67-.43c.38-.32.82-.56,1.22-.87a1.2,1.2,0,0,0,.49-.84,1.07,1.07,0,0,0,0-.68,3,3,0,0,1-.07-1.58,1,1,0,0,1,.91-.74c.18-.07.38,0,.55-.08,1,.09,1.47-.44,1.48-1.12a.43.43,0,0,0-.65-.42,18,18,0,0,0-1.59,1,3.15,3.15,0,0,1-2.19.88c-.84-.11-1.09.34-1.47.88a60.19,60.19,0,0,1-4.65,6.17c-.56.62-.93,1.4-1.48,2a4.51,4.51,0,0,1-1.47,1.17,1.75,1.75,0,0,1-.73,0,2.81,2.81,0,0,1-2.41-2.57,2,2,0,0,1,.84-1.72c.54-.45.94-1,1.43-1.51s.81-1,1.23-1.42c.92-1,1.83-2.09,2.69-3.18.57-.73,1.24-1.38,1.84-2.09a47.56,47.56,0,0,0,3.31-4c.33-.5.28-.7-.23-1.06L94,51.31c-.8-.55-.9-.85-.49-1.7.25-.51.35-1.24,1.28-.86-.15-.44-.51-.56-.77-.76-.57-.43-1.2-.77-1.2-1.64a1.36,1.36,0,0,0-.32-.75,1.72,1.72,0,0,1,0-2.42c0-.19-.1-.14-.2-.08l-.11,0A1.65,1.65,0,0,1,91.57,43.14Z"/><path id="_路径_34" data-name="&lt;路径&gt;" class="cls-1" d="M91.9,53.08A5.26,5.26,0,0,1,90.85,56a2.1,2.1,0,0,1-1.49.72,7.56,7.56,0,0,1-2.69-.11,1.69,1.69,0,0,1-1.31-2.21,7.71,7.71,0,0,1,1-1.64A4.92,4.92,0,0,1,88,51.27a12.56,12.56,0,0,1,2.26-1.62c.32-.13.61-.3.92-.05a.94.94,0,0,1,.45,1A1.67,1.67,0,0,0,91.9,52,5,5,0,0,1,91.9,53.08Z"/><path id="_路径_35" data-name="&lt;路径&gt;" class="cls-1" d="M104.49,49.47a7.53,7.53,0,0,1,1.88-.08c.4,0,.81,0,1.21,0a7.66,7.66,0,0,1-1.88.08C105.3,49.49,104.89,49.47,104.49,49.47Z"/><path id="_路径_36" data-name="&lt;路径&gt;" class="cls-1" d="M87.12,26.67a23.47,23.47,0,0,1-2.88.08,12.52,12.52,0,0,1,2.3-.08C86.73,26.65,86.93,26.67,87.12,26.67Z"/><path id="_路径_37" data-name="&lt;路径&gt;" class="cls-1" d="M102.81,68.28h1.26A2.06,2.06,0,0,1,102.81,68.28Z"/><path id="_路径_38" data-name="&lt;路径&gt;" class="cls-1" d="M90.15,18.5v1.15A1.79,1.79,0,0,1,90.15,18.5Z"/><path id="_路径_39" data-name="&lt;路径&gt;" class="cls-1" d="M91.9,53.08V52A1.49,1.49,0,0,1,91.9,53.08Z"/><path id="_路径_40" data-name="&lt;路径&gt;" class="cls-1" d="M92.08,17.3h-.94A1.23,1.23,0,0,1,92.08,17.3Z"/><path id="_路径_41" data-name="&lt;路径&gt;" class="cls-1" d="M106.2,42.78l-.84,0A.91.91,0,0,1,106.2,42.78Z"/><path id="_路径_42" data-name="&lt;路径&gt;" class="cls-1" d="M96.55,67.75h.84A1,1,0,0,1,96.55,67.75Z"/><path id="_路径_43" data-name="&lt;路径&gt;" class="cls-1" d="M109,47.24a2,2,0,0,1,.07-.85C109,46.67,109.15,47,109,47.24Z"/><path id="_路径_44" data-name="&lt;路径&gt;" class="cls-1" d="M106.62,35.23h-.73A.79.79,0,0,1,106.62,35.23Z"/><path id="_路径_45" data-name="&lt;路径&gt;" class="cls-1" d="M86,69.44h.73A.72.72,0,0,1,86,69.44Z"/><path id="_路径_46" data-name="&lt;路径&gt;" class="cls-1" d="M91.57,43.14h.62A.57.57,0,0,1,91.57,43.14Z"/><path id="_路径_47" data-name="&lt;路径&gt;" class="cls-1" d="M97.4,61.22a.68.68,0,0,1,0,.68Z"/><path id="_路径_48" data-name="&lt;路径&gt;" class="cls-1" d="M106.19,64.31a1.3,1.3,0,0,1-.66-.07C105.76,64.25,106,64.16,106.19,64.31Z"/><path id="_路径_49" data-name="&lt;路径&gt;" class="cls-1" d="M110.22,26.69a1.06,1.06,0,0,1-.08-.55C110.29,26.31,110.21,26.5,110.22,26.69Z"/><path id="_路径_50" data-name="&lt;路径&gt;" class="cls-1" d="M104.18,32.68h-.51A.43.43,0,0,1,104.18,32.68Z"/><path id="_路径_51" data-name="&lt;路径&gt;" class="cls-1" d="M102.09,33a.89.89,0,0,1-.55.08C101.7,33,101.9,33,102.09,33Z"/><path id="_路径_52" data-name="&lt;路径&gt;" class="cls-1" d="M92.3,43.11c.08-.08.18-.18.29-.1s0,.14-.08.18Z"/><path id="_路径_53" data-name="&lt;路径&gt;" class="cls-1" d="M95.59,67.64a.87.87,0,0,1,.53.08C95.95,67.71,95.75,67.79,95.59,67.64Z"/><path id="_路径_54" data-name="&lt;路径&gt;" class="cls-1" d="M98.8,58.82a1.13,1.13,0,0,1-.55.08C98.41,58.75,98.61,58.83,98.8,58.82Z"/><path id="_路径_55" data-name="&lt;路径&gt;" class="cls-1" d="M65.22,69.32a1,1,0,0,1-.08.54C65.16,69.68,65.07,69.49,65.22,69.32Z"/><path id="_路径_56" data-name="&lt;路径&gt;" class="cls-1" d="M109.06,39a1,1,0,0,1-.08-.55C109.13,38.61,109,38.81,109.06,39Z"/><path id="_路径_57" data-name="&lt;路径&gt;" class="cls-1" d="M101.43,43.53a20.55,20.55,0,0,0-2,2c-.21.28-.43.22-.7.13a27.65,27.65,0,0,0-3.45-.89c-.07,0-.18-.07-.1-.19a31.92,31.92,0,0,1,5.25-1.07c.26-.06.52-.08.78-.12S101.44,43.34,101.43,43.53Z"/><path id="_路径_58" data-name="&lt;路径&gt;" class="cls-1" d="M99.6,47.06l1.24-.34a4.29,4.29,0,0,0,2.08-1.2.7.7,0,0,1,.66-.22,7.84,7.84,0,0,1,1.25.2.39.39,0,0,1,.32.46c0,.29-.2.23-.36.26a4.4,4.4,0,0,0-2.3.81A3.33,3.33,0,0,1,99.6,47.06Z"/><path id="_路径_59" data-name="&lt;路径&gt;" class="cls-1" d="M101.36,35.68c0,.11,0,.27-.14.31-.4.08-.8.15-1.2.22-.24,0-.2-.14-.17-.27.07-.33.13-.66.22-1s0-.61.41-.52.71.11.8.55C101.31,35.19,101.32,35.42,101.36,35.68Z"/><path id="_路径_60" data-name="&lt;路径&gt;" class="cls-1" d="M100,40c-.39,0-.69.09-.73-.35s.23-.45.51-.5.76-.16,1.14-.2c.14,0,.38-.17.42.12s.09.43-.21.57A2.87,2.87,0,0,1,100,40Z"/><path id="_路径_61" data-name="&lt;路径&gt;" class="cls-1" d="M93.6,40.23c.7-.49,1.2-1,2-.9.17,0,.43-.09.42.23s-.09.45-.38.48A11.47,11.47,0,0,1,93.6,40.23Z"/><path id="_路径_62" data-name="&lt;路径&gt;" class="cls-1" d="M104.69,38.58a.21.21,0,0,1,.17.17c0,.1,0,.19-.13.18s-.14-.1-.14-.2S104.59,38.59,104.69,38.58Z"/><path id="_路径_63" data-name="&lt;路径&gt;" class="cls-1" d="M95.18,44.61l.1.19c-.1,0-.23,0-.27-.07S95.09,44.61,95.18,44.61Z"/><path id="_路径_64" data-name="&lt;路径&gt;" class="cls-1" d="M101.43,43.53c0-.1-.14-.09-.22-.12.11-.09.24-.15.35,0S101.51,43.51,101.43,43.53Z"/></g><g id="重"><path id="_路径_65" data-name="&lt;路径&gt;" class="cls-1" d="M213.69,12.24c.29.9.83,1.68,1.19,2.55a14.4,14.4,0,0,1,0,2.11c-.37,1.55-1.76,1.9-2.94,2.42a7.72,7.72,0,0,0-3.82,3.22c-.27.47-.22.58.31.51,1.23-.17,2.45-.4,3.67-.63a6.34,6.34,0,0,0,2.72-1.12,1.82,1.82,0,0,1,.9-.38,2,2,0,0,1,.73,0,16.58,16.58,0,0,1,2.9,2.58,1.88,1.88,0,0,1,.2,2,3.31,3.31,0,0,1-1.74,1.88,16.7,16.7,0,0,0-3.44,2C212.8,30.73,211.2,32,210.44,34c-.16.44,0,.47.32.47s1-.19,1.44-.24c.17-.07.37,0,.53-.08l.21,0c.17-.08.37,0,.54-.08a5.81,5.81,0,0,0,1.82-.15,2.21,2.21,0,0,1,2.2.63,14.71,14.71,0,0,1,2.26,2.82,1.23,1.23,0,0,1,0,.52,4.37,4.37,0,0,1-1.61,1.71A11.88,11.88,0,0,1,214,41.8c-1.63.31-2.91,1.3-4.4,1.85-.48.17-1,.3-1.45.45a18.23,18.23,0,0,1-2.43,0l0,0h-.05c-.53-.13-1.07,0-1.59-.08h-2.34c-.35.09-.72,0-1.07.08a12.63,12.63,0,0,1-1.32,0c-.35,0-.78-.12-.85-.54a.93.93,0,0,1,.43-1.13,10,10,0,0,1,2-.58A62.82,62.82,0,0,0,208,39.37c.84-.35,1.73-.58,2.58-.92a2.23,2.23,0,0,0,1.22-.86,1.76,1.76,0,0,0-.93,0,21.41,21.41,0,0,0-3.12.7c-1.8.44-3.49,1.23-5.32,1.57l-4.4.81a10.17,10.17,0,0,1-2.07.21,1.28,1.28,0,0,1-.89-.36,2.6,2.6,0,0,0-1.68-.8c-.16-.12-.36,0-.53-.08a.65.65,0,0,1-.62-.52c-.07-.38.12-.6.46-.78a23.67,23.67,0,0,1,4.8-1.67,21.17,21.17,0,0,1,2.92-.64c.54-.08.73-.46.38-.89s-.28-.72.22-.95a1.5,1.5,0,0,0,.37-.28c.27-.25.85-.37.67-.81a1.58,1.58,0,0,0-1.74-.7,21,21,0,0,0-2.59,1.68c-.85.58-1.7,1.18-2.53,1.8-.33.24-.44.17-.53-.2a2.69,2.69,0,0,1,.64-2.7c.23-.23.58-.43.47-.9-.07-.31-.23-.38-.47-.3a5,5,0,0,0-2,1.44c-.14.15-.05.3,0,.43s.29.52.43.78a3.19,3.19,0,0,1,0,.83c-.12.29-.22.59-.36.87a1.36,1.36,0,0,1-2,.65,3.79,3.79,0,0,1-1.72-1.84,1.26,1.26,0,0,1,.15-1.14,2,2,0,0,0,.33-.82c0-.64-.48-.9-.86-1.22a3.06,3.06,0,0,1-.76-.91c-.25-.46.39-1.38,1-1.42a2,2,0,0,1,.73.07A.53.53,0,0,0,191,29a1.07,1.07,0,0,0-.49-1.28c-1-.48-1.06-.92-.32-1.69a5.18,5.18,0,0,1,1.08-.88.9.9,0,0,1,1.23.11.76.76,0,0,0,.23.11c.49.08.27-.23.24-.44a1.25,1.25,0,0,1,1-1.59,5.75,5.75,0,0,0,1.75-1,1.66,1.66,0,0,1,1.45-.23,4.54,4.54,0,0,1,1.23,1c.32.4.56.23.84,0,.84-.73,1.67-1.48,2.49-2.25,1-.92,1.93-1.84,2.87-2.8A36.32,36.32,0,0,0,207,15.18c.22-.27.46-.53.65-.81s.76-.63.51-1.28c-.15-.38.45-1,.9-1.05s.79-.29,1.2-.35a3.69,3.69,0,0,1,1.05,0,7.92,7.92,0,0,0,1.78.46C213.3,12.24,213.52,12.11,213.69,12.24Z"/><path id="_路径_66" data-name="&lt;路径&gt;" class="cls-1" d="M201.69,58.29a26.91,26.91,0,0,0,.48,4.06c.28,1.85.6,3.69.9,5.53.07.43.14.86.21,1.29A3.24,3.24,0,0,1,202,72.28a8.16,8.16,0,0,1-2.73,1.63,1.28,1.28,0,0,1-.52,0,2.7,2.7,0,0,1-1.54-.78A22.41,22.41,0,0,0,194.63,71c-.62-.44-1.18-1-1.78-1.41-.41-.31-.41-.77-.58-1.18a16.65,16.65,0,0,0-2-3.24,8.09,8.09,0,0,0-1.91-1.92c-.3-.21,0-.44-.09-.65.15-.3.4-.18.62-.15a16.26,16.26,0,0,1,2.93,1.11c.78.46,1.53,1,2.32,1.44a16,16,0,0,1,2.14,1.29c.27.22.64,0,.67-.49s0-1.09,0-1.64c-.08-.21,0-.45-.08-.66l0-.62c-.07-.17,0-.37-.07-.53l0-.53c-.07-.21,0-.44-.08-.64l0-.85a3.2,3.2,0,0,1,0-.94l0-1.27c.09-.53.09-.53-.22-.55l-4.74,1.17c-.49.12-1,.28-1.46.37a4.67,4.67,0,0,0-2.26,1.14c-.59.52-.83.51-1.47.06a33.62,33.62,0,0,1-4.78-3.83.52.52,0,0,1-.06-.81,12.7,12.7,0,0,1,1.95-1.79,6.83,6.83,0,0,1,.94-.83,3.17,3.17,0,0,1,.66-.28,3.49,3.49,0,0,1,.94,0,4.61,4.61,0,0,0,1.28,0c.17-.08.37,0,.53-.08l3.61-.56c.32-.07.66,0,1-.07l2.42,0a9.33,9.33,0,0,0,1.07-.07,2,2,0,0,0,1.86-1.42,2.38,2.38,0,0,1,1.33-1.57,1,1,0,0,0,.58-.48,13,13,0,0,1-3.15-1.33,2.54,2.54,0,0,1-1-1.14,1.05,1.05,0,0,1,.63-1.58c.39-.15.8-.24,1.2-.36a5.18,5.18,0,0,1,1.15,0,1,1,0,0,0,.73.52,15.72,15.72,0,0,1,2.71.93,9,9,0,0,0,2,.37,1.56,1.56,0,0,1,1.09.63c.22.33.65.48.82.87a2,2,0,0,1,0,.73,4.11,4.11,0,0,1-1.38,1.35,4.17,4.17,0,0,0-.67.6.37.37,0,0,0-.05.48c.1.16.28.14.43.09,1.59-.48,3.23-.73,4.86-1.08a2.32,2.32,0,0,1,2.76,1.12,2.26,2.26,0,0,0,1.19.95c.65.25.7.44.5,1.11a11.85,11.85,0,0,1-.53,1.3,1.55,1.55,0,0,1-1.42.74,2.89,2.89,0,0,1-1.19-.1,3.68,3.68,0,0,0-2.16.16,33.85,33.85,0,0,1-5.32.92A1.32,1.32,0,0,0,201.69,57,3.32,3.32,0,0,0,201.69,58.29Z"/><path id="_路径_67" data-name="&lt;路径&gt;" class="cls-1" d="M190.79,40.56c-.55,1.41-1.47,2.64-2,4-.46.12-.93,0-1.39.09l-.32,0a2.66,2.66,0,0,1-.84,0l-1,0c-1.38,0-1.66-.94-1.24-2.09s1.43-1.95,2.06-3a6,6,0,0,1,1.66-1.79.94.94,0,0,1,1.12-.05A4.38,4.38,0,0,1,190.79,40,.94.94,0,0,1,190.79,40.56Z"/><path id="_路径_68" data-name="&lt;路径&gt;" class="cls-1" d="M205.73,44.08h2.43A6.83,6.83,0,0,1,205.73,44.08Z"/><path id="_路径_69" data-name="&lt;路径&gt;" class="cls-1" d="M214.87,16.9V14.79A5.29,5.29,0,0,1,214.87,16.9Z"/><path id="_路径_70" data-name="&lt;路径&gt;" class="cls-1" d="M204,44a6.5,6.5,0,0,1,1.59.08A5.86,5.86,0,0,1,204,44Z"/><path id="_路径_71" data-name="&lt;路径&gt;" class="cls-1" d="M187.37,44.7c.45-.2.93,0,1.39-.09A4,4,0,0,1,187.37,44.7Z"/><path id="_路径_72" data-name="&lt;路径&gt;" class="cls-1" d="M201.69,58.29a2.37,2.37,0,0,1,0-1.29Z"/><path id="_路径_73" data-name="&lt;路径&gt;" class="cls-1" d="M198.61,44h-1.15A1.75,1.75,0,0,1,198.61,44Z"/><path id="_路径_74" data-name="&lt;路径&gt;" class="cls-1" d="M196,51.92a2.84,2.84,0,0,1-1.07.07A2.89,2.89,0,0,1,196,51.92Z"/><path id="_路径_75" data-name="&lt;路径&gt;" class="cls-1" d="M200.62,44.06a3,3,0,0,1,1.07-.08A2.7,2.7,0,0,1,200.62,44.06Z"/><path id="_路径_76" data-name="&lt;路径&gt;" class="cls-1" d="M211.35,11.68H210.3A1.37,1.37,0,0,1,211.35,11.68Z"/><path id="_路径_77" data-name="&lt;路径&gt;" class="cls-1" d="M197.24,22.09h-.95A1.09,1.09,0,0,1,197.24,22.09Z"/><path id="_路径_78" data-name="&lt;路径&gt;" class="cls-1" d="M210.92,37.59a1.46,1.46,0,0,1,.93,0Z"/><path id="_路径_79" data-name="&lt;路径&gt;" class="cls-1" d="M192.49,52a3.34,3.34,0,0,1-1,.07A2.31,2.31,0,0,1,192.49,52Z"/><path id="_路径_80" data-name="&lt;路径&gt;" class="cls-1" d="M186.09,52.74h-.94A1.2,1.2,0,0,1,186.09,52.74Z"/><path id="_路径_81" data-name="&lt;路径&gt;" class="cls-1" d="M196.58,59.35v.94A1.18,1.18,0,0,1,196.58,59.35Z"/><path id="_路径_82" data-name="&lt;路径&gt;" class="cls-1" d="M196.38,57.54c.33-.05.34,0,.22.55C196.55,57.89,196.73,57.61,196.38,57.54Z"/><path id="_路径_83" data-name="&lt;路径&gt;" class="cls-1" d="M186.21,44.72H187A.94.94,0,0,1,186.21,44.72Z"/><path id="_路径_84" data-name="&lt;路径&gt;" class="cls-1" d="M193.77,35.25v-.83A1,1,0,0,1,193.77,35.25Z"/><path id="_路径_85" data-name="&lt;路径&gt;" class="cls-1" d="M216.44,20.91h-.73A.74.74,0,0,1,216.44,20.91Z"/><path id="_路径_86" data-name="&lt;路径&gt;" class="cls-1" d="M193,25c0,.19.33.57-.24.44C193.05,25.37,193,25.14,193,25Z"/><path id="_路径_87" data-name="&lt;路径&gt;" class="cls-1" d="M206,48.09v-.73A.74.74,0,0,1,206,48.09Z"/><path id="_路径_88" data-name="&lt;路径&gt;" class="cls-1" d="M188.85,62.4c-.22,0-.47-.12-.62.15C188.36,62.16,188.61,62.3,188.85,62.4Z"/><path id="_路径_89" data-name="&lt;路径&gt;" class="cls-1" d="M196.82,63.46a1.33,1.33,0,0,1,.08.66C196.74,63.91,196.84,63.68,196.82,63.46Z"/><path id="_路径_90" data-name="&lt;路径&gt;" class="cls-1" d="M196.61,61.14a1.19,1.19,0,0,1,.08.64C196.54,61.58,196.63,61.35,196.61,61.14Z"/><path id="_路径_91" data-name="&lt;路径&gt;" class="cls-1" d="M213.69,12.24c-.18-.06-.39,0-.56-.1C213.31,12.15,213.53,12,213.69,12.24Z"/><path id="_路径_92" data-name="&lt;路径&gt;" class="cls-1" d="M212.74,34.2a1,1,0,0,1-.53.08C212.37,34.14,212.56,34.22,212.74,34.2Z"/><path id="_路径_93" data-name="&lt;路径&gt;" class="cls-1" d="M213.49,34.1a.81.81,0,0,1-.54.08C213.11,34,213.31,34.11,213.49,34.1Z"/><path id="_路径_94" data-name="&lt;路径&gt;" class="cls-1" d="M187.91,52.66a.88.88,0,0,1-.53.08C187.54,52.6,187.73,52.68,187.91,52.66Z"/><path id="_路径_95" data-name="&lt;路径&gt;" class="cls-1" d="M196.71,62.31a.86.86,0,0,1,.07.53C196.65,62.68,196.73,62.49,196.71,62.31Z"/><path id="_路径_96" data-name="&lt;路径&gt;" class="cls-1" d="M190.79,40.56V40A.4.4,0,0,1,190.79,40.56Z"/><path id="_路径_97" data-name="&lt;路径&gt;" class="cls-1" d="M198.73,73.91h.52A.42.42,0,0,1,198.73,73.91Z"/><path id="_路径_98" data-name="&lt;路径&gt;" class="cls-1" d="M192.89,39.63a.88.88,0,0,1,.53.08C193.25,39.69,193.05,39.78,192.89,39.63Z"/><path id="_路径_99" data-name="&lt;路径&gt;" class="cls-1" d="M219.76,37.91v-.52A.42.42,0,0,1,219.76,37.91Z"/><path id="_路径_100" data-name="&lt;路径&gt;" class="cls-1" d="M208.39,27.39c.22,0,.65-.08.71.19s-.36.36-.61.48a3.19,3.19,0,0,1-.33.16c-.19.07-.42.13-.56,0s-.09-.41-.06-.6.29-.21.48-.22Z"/></g></g></g></svg>