<svg xmlns="http://www.w3.org/2000/svg" viewBox="0 0 226.77 101.03"><defs><style>.cls-1{font-size:15.01px;font-family:TimesNewRomanPS-BoldMT, Times New Roman;font-weight:700;letter-spacing:0.05em;}.cls-1,.cls-3{fill:#1d6bad;}.cls-2{letter-spacing:0.01em;}</style></defs><title>校名（蓝色带英文）-Vector</title><g id="蓝色"><g id="_编组_" data-name="&lt;编组&gt;"><text class="cls-1" transform="translate(10.15 93.44)">CHONGQING UNIVERSIT<tspan class="cls-2" x="198.76" y="0">Y</tspan></text><g id="校名毛笔字"><g id="学"><path id="_路径_" data-name="&lt;路径&gt;" class="cls-3" d="M31.28,49.9a16.59,16.59,0,0,0-2,2.77c-.57.82-1.13,1.63-1.77,2.4a1.74,1.74,0,0,1-2.11.5A5.38,5.38,0,0,1,23,54.4,1.24,1.24,0,0,1,22.78,53a13.52,13.52,0,0,1,2.12-3.46C26,48.15,27,46.73,28.17,45.36a24.87,24.87,0,0,1,2.14-2.49.94.94,0,0,0,.21-.42,3.74,3.74,0,0,0-1.07.5c-2.15,1.24-4.33,2.44-6.37,3.86a38,38,0,0,0-3.49,3,19.64,19.64,0,0,1-3.87,3,8.6,8.6,0,0,1-2,.71,1.94,1.94,0,0,1-1.6-.39,22,22,0,0,0-5.31-2.65,3.51,3.51,0,0,1-1.68-1.12,1.3,1.3,0,0,1,0-.64,3,3,0,0,1,2-2.41c1.84-.87,3.74-1.61,5.61-2.41q2.28-1,4.55-2Q21.6,40,25.91,38.07c2.51-1.12,5-2.24,7.52-3.42A1.14,1.14,0,0,0,34,32.9a1.65,1.65,0,0,1-.41-1.24,1.92,1.92,0,0,1,1.7-1.53c.59-.13,1.18-.24,1.76-.35.18-.09.38,0,.55-.08l.52,0a4.51,4.51,0,0,1,1.17,0C40.51,30,41,31,41.48,32a.55.55,0,0,1-.11.63,1.48,1.48,0,0,0-.29.6h.59a1.55,1.55,0,0,1,1.54.92c.38.76.78,1.51,1.09,2.31a2.27,2.27,0,0,1,0,.74,2.55,2.55,0,0,1-1.37,1.36A25.69,25.69,0,0,1,40,39.94a2.9,2.9,0,0,0-1.62,2c-.13.34.18.22.35.16a6.72,6.72,0,0,0,2.75-1.79,1.66,1.66,0,0,1,.74,0c.72.44,1.3,1.07,2.07,1.45A2.13,2.13,0,0,1,45.38,43a4.06,4.06,0,0,1,0,1.06,6.54,6.54,0,0,1-1.44,2.4c-.75.94-1.33,2-2.11,2.94a15.51,15.51,0,0,1-2.49,2.33c-.42.32-1,.17-1.45.14a3.49,3.49,0,0,1-1-.21c-.4-.15-.58,0-.75.34A25.84,25.84,0,0,0,35,55.33c-.31.86-.61,1.74-.95,2.59a.49.49,0,0,0,.19.68,3.66,3.66,0,0,1,1.68,2.48,4.75,4.75,0,0,1,0,1.17c-.22,1.13-1.07,1.9-1.63,2.83-.29.49-.63.94-1,1.55,1.54-.63,2.85-1.41,4.26-1.93.29-.1.6,0,.89-.08l.29,0a1.47,1.47,0,0,1,.63,0c.16.15.32.29.47.44A1,1,0,0,1,40,66.42a12.54,12.54,0,0,1-.61,1.12,1.64,1.64,0,0,0-.12,1.56c.08.2.09.41.15.62a.8.8,0,0,1-.53,1.1c-.73.27-1.46.53-2.2.78-1.91.65-3.81,1.31-5.72,1.94-.65.22-1.33.37-2,.56a2.3,2.3,0,0,1-.74,0c-.67-.2-1-.77-1.36-1.28s-.48-.87-.8-1.24a1.64,1.64,0,0,1-.1-2,18.61,18.61,0,0,0,1.51-3.3c.42-1.69,1-3.34,1.5-5,.12-.38.15-.68-.43-.83a1.31,1.31,0,0,1-1-1.43,4.24,4.24,0,0,1,0-1.06c.12-.9.11-.92,1-1.1a1.18,1.18,0,0,0,.89-.93C30,54.27,30.56,52.62,31.2,51a6.27,6.27,0,0,0,.2-.76C31.41,50.11,31.56,49.94,31.28,49.9Z"/><path id="_路径_2" data-name="&lt;路径&gt;" class="cls-3" d="M38.45,12.29a4,4,0,0,1,1.78-2.74,5,5,0,0,1,2-1.16,1.62,1.62,0,0,1,.63,0,4.28,4.28,0,0,1,.91.65,1.21,1.21,0,0,1,.38,1,5.36,5.36,0,0,0,.38,2,1.42,1.42,0,0,0,.43.59,4.14,4.14,0,0,1,1.44,1.75A3.64,3.64,0,0,1,46,17.24a37.5,37.5,0,0,1-4,5.61A21.74,21.74,0,0,1,39,25.94c-.72.58-1.5,1.08-2.21,1.67q-2,1.66-3.85,3.4a27.48,27.48,0,0,0-3.4,3.71,4.15,4.15,0,0,1-1.87,1.56,1.51,1.51,0,0,1-.63,0,2.59,2.59,0,0,1-1.31-1.18.45.45,0,0,1,0-.45,30.27,30.27,0,0,1,3.51-6.18c1.54-2.18,3-4.4,4.52-6.61,1.15-1.71,2.41-3.34,3.62-5a5,5,0,0,0,1-2.62C38.5,13.59,38.36,12.93,38.45,12.29Z"/><path id="_路径_3" data-name="&lt;路径&gt;" class="cls-3" d="M38.45,12.29a16.48,16.48,0,0,1-.08,1.94A8.41,8.41,0,0,1,38.45,12.29Z"/><path id="_路径_4" data-name="&lt;路径&gt;" class="cls-3" d="M39.33,29.67H38.16A1.7,1.7,0,0,1,39.33,29.67Z"/><path id="_路径_5" data-name="&lt;路径&gt;" class="cls-3" d="M35.91,62.25V61.08A1.73,1.73,0,0,1,35.91,62.25Z"/><path id="_路径_6" data-name="&lt;路径&gt;" class="cls-3" d="M45.37,44.09V43A1.42,1.42,0,0,1,45.37,44.09Z"/><path id="_路径_7" data-name="&lt;路径&gt;" class="cls-3" d="M27.6,58V59A1.44,1.44,0,0,1,27.6,58Z"/><path id="_路径_8" data-name="&lt;路径&gt;" class="cls-3" d="M38.4,64.63c-.28.16-.59.05-.89.08C37.79,64.52,38.1,64.65,38.4,64.63Z"/><path id="_路径_9" data-name="&lt;路径&gt;" class="cls-3" d="M44.31,37.21v-.74A.77.77,0,0,1,44.31,37.21Z"/><path id="_路径_10" data-name="&lt;路径&gt;" class="cls-3" d="M28.27,74.1H29A.78.78,0,0,1,28.27,74.1Z"/><path id="_路径_11" data-name="&lt;路径&gt;" class="cls-3" d="M42.23,40.32h-.74A.71.71,0,0,1,42.23,40.32Z"/><path id="_路径_12" data-name="&lt;路径&gt;" class="cls-3" d="M39.33,64.59h-.63A.56.56,0,0,1,39.33,64.59Z"/><path id="_路径_13" data-name="&lt;路径&gt;" class="cls-3" d="M42.88,8.4l-.63,0A.57.57,0,0,1,42.88,8.4Z"/><path id="_路径_14" data-name="&lt;路径&gt;" class="cls-3" d="M27.09,36.26h.63A.56.56,0,0,1,27.09,36.26Z"/><path id="_路径_15" data-name="&lt;路径&gt;" class="cls-3" d="M5.15,48.72v.64A.54.54,0,0,1,5.15,48.72Z"/><path id="_路径_16" data-name="&lt;路径&gt;" class="cls-3" d="M37.63,29.7a1,1,0,0,1-.55.08C37.25,29.63,37.45,29.71,37.63,29.7Z"/><path id="_路径_17" data-name="&lt;路径&gt;" class="cls-3" d="M31.28,49.9c.37,0,.14.21.11.35C31.37,50.12,31.41,50,31.28,49.9Z"/></g><g id="大"><path id="_路径_18" data-name="&lt;路径&gt;" class="cls-3" d="M145.42,43.44l0,.53c-.11.17,0,.37-.08.54l0,.52c-.11.17,0,.37-.08.55l0,.53c-.11.17,0,.37-.08.54-.06.35.24.25.34.21,1.43-.51,3-.58,4.35-1.26a1.69,1.69,0,0,0,.62-.48.73.73,0,0,0,0-1,3.21,3.21,0,0,1-.86-2.42c0-.49.33-.74.69-.43a2.92,2.92,0,0,0,2.61.48,1.24,1.24,0,0,1,1,.21c.45.33,1,.17,1.49.32a2.19,2.19,0,0,1,1.58,1.3,6.7,6.7,0,0,1,0,1.28,4.44,4.44,0,0,1-2.48,3.43,34.67,34.67,0,0,1-7.74,3.13c-.58.15-1.15.36-1.71.56-.14,0-.32.09-.36.28s0,.37-.09.54a4.22,4.22,0,0,0,1.23,1.82,32.23,32.23,0,0,1,4.05,5.61,9.72,9.72,0,0,0,5.13,4.5,11.65,11.65,0,0,0,3.29.76c.21.1.45,0,.67.07l.52,0c.17.11.38,0,.55.09,1,.46,1,.64.29,1.49a8,8,0,0,1-2.51,2.25l-.15.05c-.17.08-.37,0-.54.08l-1.4.14a4.69,4.69,0,0,1-1.06,0,8.48,8.48,0,0,0-3.24.21,1.29,1.29,0,0,1-.52,0,1.41,1.41,0,0,1-1.11-.9,67.5,67.5,0,0,1-3.1-6.55,38.24,38.24,0,0,0-3.16-6.63,5.72,5.72,0,0,0-.29,1.29,9.7,9.7,0,0,1-2.35,4.23,9.69,9.69,0,0,1-3.28,2.76,17.46,17.46,0,0,1-3.29,1,22.62,22.62,0,0,1-2.86.48,23.22,23.22,0,0,1-2.46,0,3.52,3.52,0,0,1-2.59-1.17,2.86,2.86,0,0,1,.06-2.7.2.2,0,0,1,.28-.05,3.4,3.4,0,0,0,3.05.16,17.2,17.2,0,0,0,4.79-2.1A9.71,9.71,0,0,0,138,55.17c.25-.63.22-.65-.45-.56a2.4,2.4,0,0,0-1.67,1,7.35,7.35,0,0,1-2.08,1.72c-.24.16-.41,0-.56-.16a5.31,5.31,0,0,1-.69-.68,3.08,3.08,0,0,0-1.6-1.06.77.77,0,0,1-.56-.7,4,4,0,0,1,1.22-3.1,1.2,1.2,0,0,1,.51-.27c1.93-.61,3.86-1.19,5.77-1.84A3,3,0,0,0,139.94,47c.29-1.51.48-3,.73-4.55s.36-2.77.55-4.16.44-2.9.64-4.36c.13-.94.22-1.88.32-2.81.11-.17,0-.36.08-.54.31-.83-.29-1.12-.83-1.49-.7-.48-.71-.86-.14-1.44.21-.21.39-.47.6-.67a5.56,5.56,0,0,1,3.65-1.65.64.64,0,0,1,.67.36,14.49,14.49,0,0,0,2,2.56,2.34,2.34,0,0,1,0,3.19,9.83,9.83,0,0,0-2,4.91,32.22,32.22,0,0,0-.55,4.53c-.11.17,0,.37-.08.55a6.15,6.15,0,0,0-.13,1.5C145.39,43.07,145.49,43.27,145.42,43.44Z"/><path id="_路径_19" data-name="&lt;路径&gt;" class="cls-3" d="M129,65.61h2.46A7.46,7.46,0,0,1,129,65.61Z"/><path id="_路径_20" data-name="&lt;路径&gt;" class="cls-3" d="M156.92,44.84V43.56A2.11,2.11,0,0,1,156.92,44.84Z"/><path id="_路径_21" data-name="&lt;路径&gt;" class="cls-3" d="M154.64,69.7h1.06A1.49,1.49,0,0,1,154.64,69.7Z"/><path id="_路径_22" data-name="&lt;路径&gt;" class="cls-3" d="M158.93,65.56a1.22,1.22,0,0,1-.67-.07C158.49,65.5,158.72,65.4,158.93,65.56Z"/><path id="_路径_23" data-name="&lt;路径&gt;" class="cls-3" d="M142.25,30.56a.83.83,0,0,1-.08.54C142.19,30.92,142.11,30.72,142.25,30.56Z"/><path id="_路径_24" data-name="&lt;路径&gt;" class="cls-3" d="M145.31,44.52a.89.89,0,0,1,.08-.54C145.37,44.15,145.46,44.35,145.31,44.52Z"/><path id="_路径_25" data-name="&lt;路径&gt;" class="cls-3" d="M145.2,45.59a1,1,0,0,1,.08-.55C145.27,45.23,145.35,45.42,145.2,45.59Z"/><path id="_路径_26" data-name="&lt;路径&gt;" class="cls-3" d="M160,65.68a1.08,1.08,0,0,1-.55-.09C159.64,65.6,159.84,65.52,160,65.68Z"/><path id="_路径_27" data-name="&lt;路径&gt;" class="cls-3" d="M145.1,46.66a.9.9,0,0,1,.08-.54C145.16,46.3,145.24,46.5,145.1,46.66Z"/><path id="_路径_28" data-name="&lt;路径&gt;" class="cls-3" d="M144.55,52.79a.88.88,0,0,1,.09-.54C144.62,52.43,144.71,52.63,144.55,52.79Z"/><path id="_路径_29" data-name="&lt;路径&gt;" class="cls-3" d="M145.42,43.44a.9.9,0,0,1,.08-.54C145.48,43.08,145.56,43.28,145.42,43.44Z"/><path id="_路径_30" data-name="&lt;路径&gt;" class="cls-3" d="M145.63,41.4a.92.92,0,0,1,.08-.55C145.7,41,145.78,41.24,145.63,41.4Z"/><path id="_路径_31" data-name="&lt;路径&gt;" class="cls-3" d="M150.88,69.91h.52A.43.43,0,0,1,150.88,69.91Z"/><path id="_路径_32" data-name="&lt;路径&gt;" class="cls-3" d="M157.1,69.56a.8.8,0,0,1,.54-.08C157.48,69.62,157.28,69.54,157.1,69.56Z"/></g><g id="庆"><path id="_路径_33" data-name="&lt;路径&gt;" class="cls-3" d="M89.85,43.69a.59.59,0,0,0-.77.23c-1.29,1.59-2.35,3.33-3.57,5-2,2.76-4.12,5.48-6.17,8.23C77.91,59,76.52,61,75.06,62.83a61,61,0,0,0-4.13,5.49c-.75,1.22-1.4,2.51-2.18,3.71a4.82,4.82,0,0,1-2.4,2.1A2.39,2.39,0,0,1,63.1,72a7.8,7.8,0,0,1,0-1.29c.11-.17,0-.38.08-.55a9.49,9.49,0,0,1,2.39-5.12c1.3-1.35,2.72-2.57,4-3.91a45.74,45.74,0,0,0,3.2-3.68c.86-1.1,1.76-2.16,2.64-3.24s1.7-2.12,2.61-3.12c1.23-1.34,2.31-2.8,3.5-4.18s2.13-2.54,3.14-3.84c.78-1,1.71-1.85,2.58-2.76L91,36.41c1.17-1.24,2.34-2.48,3.51-3.72.6-.63,1.18-1.28,1.8-1.89.15-.14.39-.33.2-.57s-.38,0-.57,0a81.69,81.69,0,0,1-10.1,3.15,5.53,5.53,0,0,1-3.38-.18,3.18,3.18,0,0,1-1.85-1.88,3.7,3.7,0,0,0-1.36-1.51.89.89,0,0,1-.3-1.09,1.78,1.78,0,0,1,1.37-1.33,8.22,8.22,0,0,1,2.09-.35c.78-.07,1.56,0,2.34,0a1.26,1.26,0,0,0,.58,0,22.36,22.36,0,0,0,5.54-.91c.6-.14,1.18-.36,1.78-.53.27-.08.38-.16.13-.41-.66-.66-1.4-1.23-2.11-1.83a5.37,5.37,0,0,1-2.27-3.42,5.66,5.66,0,0,1,0-1.17,1.66,1.66,0,0,1,1-1.22,3.81,3.81,0,0,1,1,0,19.41,19.41,0,0,1,2.92,1.28,20,20,0,0,0,2.93,1.25,7.39,7.39,0,0,0,2.35.38,2.39,2.39,0,0,1,1.52.55,8.81,8.81,0,0,0,1.22.84,1.66,1.66,0,0,1,.87,1.26c.07.28.06.66.39.65a.89.89,0,0,0,.78-.62,2.07,2.07,0,0,1,.37-.79,1.7,1.7,0,0,1,2.35-.19,13.43,13.43,0,0,0,1.45,1.26,2.38,2.38,0,0,1,.79,1.47c.13.53.24,1.07.35,1.61.07.18,0,.38.08.56.14,1.17-.81,1.47-1.55,1.91A22,22,0,0,1,104,30.27c-1,.38-1.78,1.07-2.71,1.54-.61.31-1.2.68-1.79,1a1.57,1.57,0,0,0-.26.18c-.15.13-.33.32-.25.49s.34.22.57.11a1.31,1.31,0,0,1,.37-.06c.18-.08.38,0,.56-.08a3.92,3.92,0,0,0,1.59-.36,1.43,1.43,0,0,1,.52,0c.89.58.92.72.57,1.71-.12.34-.42.76-.18,1s.64-.05,1-.11l.37-.06a2.49,2.49,0,0,1,.74,0,1.94,1.94,0,0,1,1.32,1.26c.25.72.9,1.23,1.07,2,.08.18,0,.38.08.55a1.18,1.18,0,0,1-.66,1.23,23.75,23.75,0,0,1-3,1.56,10.83,10.83,0,0,0-1.18.69.34.34,0,0,0-.18.41c.08.24.25.1.4.09a3.26,3.26,0,0,0,.88-.16,2.44,2.44,0,0,1,.85,0c.39.27.79.53,1.17.81A3.79,3.79,0,0,1,107.57,47c-.12.28,0,.58-.07.86s-.14.83-.26,1.23a1.37,1.37,0,0,1-1.17.94c-.85.07-1.7,0-2.55,0a1.24,1.24,0,0,0-.58,0,2.55,2.55,0,0,0-1.51.82c-.17.19-.31.37.12.52a1.1,1.1,0,0,1,.34,1.71,4.6,4.6,0,0,0-.38.45c-.45.6-.43.57.26.92a5.48,5.48,0,0,1,2.38,2.42,1,1,0,0,1-.06,1.09,52.54,52.54,0,0,1-2.81,4.52c-.13.17-.17.3,0,.47a6.6,6.6,0,0,0,2.4,2,1.07,1.07,0,0,0,.37,0c.21.1.45,0,.67.07a.59.59,0,0,1,.44.69c-.11,1.7-.5,2.63-2.59,3.34a6.4,6.4,0,0,1-1.28,0,3.67,3.67,0,0,1-2.64-1.34c-.27-.31-.33-.76-.64-1.07s-.27-.18-.42,0a4.82,4.82,0,0,1-1,1.45,2.13,2.13,0,0,1-.75.37,2.85,2.85,0,0,1-.85,0l-.43,0c-.17-.12-.37,0-.54-.09a13.25,13.25,0,0,1-2.6-.56c-.76-.23-1-.68-.65-1.39A3.17,3.17,0,0,1,91.78,65a.66.66,0,0,1,.55-.13A1.64,1.64,0,0,0,94,64.42c.39-.32.83-.57,1.23-.88a1.22,1.22,0,0,0,.5-.85,1.09,1.09,0,0,0,0-.69,3,3,0,0,1-.07-1.6,1,1,0,0,1,.93-.75c.18-.08.38,0,.56-.08,1,.09,1.49-.45,1.5-1.13A.43.43,0,0,0,98,58a18.24,18.24,0,0,0-1.61,1,3.19,3.19,0,0,1-2.22.89c-.86-.11-1.11.34-1.48.89A61,61,0,0,1,88,67.08c-.57.63-.94,1.42-1.5,2.07A4.57,4.57,0,0,1,85,70.33a1.77,1.77,0,0,1-.74,0,2.84,2.84,0,0,1-2.44-2.6A2,2,0,0,1,82.67,66c.55-.46,1-1,1.45-1.53s.82-1,1.24-1.44c.93-1.05,1.86-2.12,2.73-3.22.58-.74,1.25-1.4,1.86-2.11a48.17,48.17,0,0,0,3.35-4.09c.34-.5.29-.71-.23-1.07L92.29,52c-.81-.55-.91-.86-.49-1.72.25-.52.36-1.26,1.3-.88-.15-.45-.52-.57-.78-.77-.57-.43-1.22-.78-1.21-1.66a1.37,1.37,0,0,0-.32-.76,1.74,1.74,0,0,1,0-2.45c0-.19-.11-.14-.21-.08l-.11,0A1.67,1.67,0,0,1,89.85,43.69Z"/><path id="_路径_34" data-name="&lt;路径&gt;" class="cls-3" d="M90.19,53.75a5.33,5.33,0,0,1-1.07,2.94,2.13,2.13,0,0,1-1.51.73,7.65,7.65,0,0,1-2.73-.11,1.71,1.71,0,0,1-1.32-2.24,7.81,7.81,0,0,1,1-1.66,5,5,0,0,1,1.67-1.48,12.72,12.72,0,0,1,2.29-1.64c.32-.13.62-.31.93-.05a1,1,0,0,1,.46,1.06,1.69,1.69,0,0,0,.27,1.4A5,5,0,0,1,90.19,53.75Z"/><path id="_路径_35" data-name="&lt;路径&gt;" class="cls-3" d="M102.93,50.1a7.63,7.63,0,0,1,1.9-.08c.41,0,.82,0,1.23,0a7.76,7.76,0,0,1-1.9.08C103.75,50.13,103.34,50.11,102.93,50.1Z"/><path id="_路径_36" data-name="&lt;路径&gt;" class="cls-3" d="M85.34,27a23.77,23.77,0,0,1-2.92.08A12.68,12.68,0,0,1,84.76,27C85,27,85.15,27,85.34,27Z"/><path id="_路径_37" data-name="&lt;路径&gt;" class="cls-3" d="M101.24,69.15h1.28A2.09,2.09,0,0,1,101.24,69.15Z"/><path id="_路径_38" data-name="&lt;路径&gt;" class="cls-3" d="M88.41,18.74v1.17A1.81,1.81,0,0,1,88.41,18.74Z"/><path id="_路径_39" data-name="&lt;路径&gt;" class="cls-3" d="M90.19,53.75V52.7A1.51,1.51,0,0,1,90.19,53.75Z"/><path id="_路径_40" data-name="&lt;路径&gt;" class="cls-3" d="M90.37,17.52h-1A1.25,1.25,0,0,1,90.37,17.52Z"/><path id="_路径_41" data-name="&lt;路径&gt;" class="cls-3" d="M104.66,43.33l-.85,0A.92.92,0,0,1,104.66,43.33Z"/><path id="_路径_42" data-name="&lt;路径&gt;" class="cls-3" d="M94.89,68.61h.85A1,1,0,0,1,94.89,68.61Z"/><path id="_路径_43" data-name="&lt;路径&gt;" class="cls-3" d="M107.49,47.84a2,2,0,0,1,.07-.86C107.54,47.27,107.65,47.57,107.49,47.84Z"/><path id="_路径_44" data-name="&lt;路径&gt;" class="cls-3" d="M105.09,35.68h-.74A.79.79,0,0,1,105.09,35.68Z"/><path id="_路径_45" data-name="&lt;路径&gt;" class="cls-3" d="M84.26,70.33H85A.73.73,0,0,1,84.26,70.33Z"/><path id="_路径_46" data-name="&lt;路径&gt;" class="cls-3" d="M89.85,43.69h.63A.57.57,0,0,1,89.85,43.69Z"/><path id="_路径_47" data-name="&lt;路径&gt;" class="cls-3" d="M95.76,62a.69.69,0,0,1,0,.69Z"/><path id="_路径_48" data-name="&lt;路径&gt;" class="cls-3" d="M104.66,65.13a1.32,1.32,0,0,1-.67-.07C104.22,65.07,104.45,65,104.66,65.13Z"/><path id="_路径_49" data-name="&lt;路径&gt;" class="cls-3" d="M108.74,27a1.07,1.07,0,0,1-.08-.56C108.81,26.64,108.73,26.84,108.74,27Z"/><path id="_路径_50" data-name="&lt;路径&gt;" class="cls-3" d="M102.62,33.1h-.52A.44.44,0,0,1,102.62,33.1Z"/><path id="_路径_51" data-name="&lt;路径&gt;" class="cls-3" d="M100.5,33.46a.9.9,0,0,1-.56.08C100.11,33.39,100.32,33.47,100.5,33.46Z"/><path id="_路径_52" data-name="&lt;路径&gt;" class="cls-3" d="M90.59,43.66c.08-.08.18-.18.29-.11s0,.15-.08.18Z"/><path id="_路径_53" data-name="&lt;路径&gt;" class="cls-3" d="M93.93,68.5a.88.88,0,0,1,.54.09C94.29,68.57,94.09,68.65,93.93,68.5Z"/><path id="_路径_54" data-name="&lt;路径&gt;" class="cls-3" d="M97.17,59.57a1.15,1.15,0,0,1-.56.08C96.78,59.5,97,59.58,97.17,59.57Z"/><path id="_路径_55" data-name="&lt;路径&gt;" class="cls-3" d="M63.17,70.21a1,1,0,0,1-.08.55C63.1,70.57,63,70.37,63.17,70.21Z"/><path id="_路径_56" data-name="&lt;路径&gt;" class="cls-3" d="M107.56,39.49a1,1,0,0,1-.08-.55C107.63,39.1,107.55,39.3,107.56,39.49Z"/><path id="_路径_57" data-name="&lt;路径&gt;" class="cls-3" d="M99.83,44.09a20.81,20.81,0,0,0-2,2c-.21.28-.44.22-.71.13a28,28,0,0,0-3.5-.9c-.07,0-.18-.07-.11-.19,1.71-.68,3.55-.7,5.31-1.08.26-.06.53-.08.79-.12S99.84,43.89,99.83,44.09Z"/><path id="_路径_58" data-name="&lt;路径&gt;" class="cls-3" d="M98,47.66l1.25-.34a4.34,4.34,0,0,0,2.11-1.21.7.7,0,0,1,.67-.22,7.94,7.94,0,0,1,1.27.2.39.39,0,0,1,.32.46c0,.29-.21.24-.37.26a4.46,4.46,0,0,0-2.33.83A3.38,3.38,0,0,1,98,47.66Z"/><path id="_路径_59" data-name="&lt;路径&gt;" class="cls-3" d="M99.76,36.13c0,.12,0,.27-.15.31-.4.08-.81.16-1.21.22-.24,0-.2-.14-.18-.28.07-.33.13-.67.22-1s0-.62.41-.53.72.11.81.55C99.71,35.64,99.73,35.87,99.76,36.13Z"/><path id="_路径_60" data-name="&lt;路径&gt;" class="cls-3" d="M98.35,40.56c-.39,0-.7.1-.74-.35s.23-.45.52-.5.77-.16,1.15-.21c.14,0,.38-.18.42.12s.09.44-.21.57A2.91,2.91,0,0,1,98.35,40.56Z"/><path id="_路径_61" data-name="&lt;路径&gt;" class="cls-3" d="M91.9,40.75c.7-.49,1.21-1,2-.91.17,0,.44-.09.42.24s-.09.46-.39.48A11.61,11.61,0,0,1,91.9,40.75Z"/><path id="_路径_62" data-name="&lt;路径&gt;" class="cls-3" d="M103.14,39.07a.21.21,0,0,1,.18.17c0,.1,0,.19-.13.18s-.14-.11-.14-.2S103,39.08,103.14,39.07Z"/><path id="_路径_63" data-name="&lt;路径&gt;" class="cls-3" d="M93.5,45.18l.11.19c-.1,0-.23,0-.27-.07S93.42,45.18,93.5,45.18Z"/><path id="_路径_64" data-name="&lt;路径&gt;" class="cls-3" d="M99.83,44.09c0-.11-.14-.09-.22-.12.11-.09.25-.15.36,0S99.92,44.07,99.83,44.09Z"/></g><g id="重"><path id="_路径_65" data-name="&lt;路径&gt;" class="cls-3" d="M213.52,12.4c.29.91.84,1.7,1.21,2.58a14.58,14.58,0,0,1,0,2.14c-.37,1.57-1.78,1.93-3,2.45a7.82,7.82,0,0,0-3.87,3.26c-.27.48-.23.59.31.51,1.25-.17,2.49-.4,3.72-.64a6.42,6.42,0,0,0,2.76-1.13,1.84,1.84,0,0,1,.91-.39,2.05,2.05,0,0,1,.74,0,16.79,16.79,0,0,1,2.94,2.62,1.9,1.9,0,0,1,.2,2.06,3.35,3.35,0,0,1-1.76,1.9,16.92,16.92,0,0,0-3.48,2c-1.58,1.34-3.2,2.65-4,4.7-.17.45,0,.48.33.48s1-.2,1.46-.25c.17-.07.37,0,.54-.08l.21,0c.17-.08.38,0,.55-.08a5.88,5.88,0,0,0,1.84-.16,2.24,2.24,0,0,1,2.23.64,14.9,14.9,0,0,1,2.29,2.85,1.25,1.25,0,0,1,0,.52A4.42,4.42,0,0,1,218,40.12a12,12,0,0,1-4.19,2.21c-1.65.32-2.94,1.32-4.46,1.87-.48.18-1,.31-1.47.45a18.46,18.46,0,0,1-2.46,0l-.05,0h-.05c-.53-.14-1.08,0-1.61-.09h-2.37c-.36.09-.73,0-1.09.08a12.79,12.79,0,0,1-1.34,0c-.36,0-.79-.12-.86-.55a.94.94,0,0,1,.44-1.14,10.1,10.1,0,0,1,2-.59,63.62,63.62,0,0,0,7.27-2.45c.85-.36,1.75-.59,2.61-.93a2.26,2.26,0,0,0,1.24-.87,1.78,1.78,0,0,0-.94,0,21.68,21.68,0,0,0-3.16.71c-1.82.44-3.54,1.25-5.39,1.59l-4.46.82a10.3,10.3,0,0,1-2.1.22,1.29,1.29,0,0,1-.9-.37,2.63,2.63,0,0,0-1.71-.81c-.17-.12-.37,0-.54-.09a.66.66,0,0,1-.63-.53c-.07-.38.12-.6.47-.79a24,24,0,0,1,4.86-1.7,21.44,21.44,0,0,1,3-.65c.55-.08.74-.47.39-.9s-.28-.73.22-1a1.52,1.52,0,0,0,.37-.28c.27-.25.86-.38.68-.82a1.6,1.6,0,0,0-1.77-.71,21.25,21.25,0,0,0-2.63,1.7c-.86.59-1.72,1.19-2.56,1.82-.33.25-.45.17-.54-.2a2.72,2.72,0,0,1,.65-2.74c.23-.23.58-.44.48-.91-.07-.32-.23-.39-.48-.3a5.06,5.06,0,0,0-2,1.46c-.14.15-.05.3,0,.44s.29.53.44.79a3.23,3.23,0,0,1,0,.84c-.12.29-.22.6-.36.88a1.38,1.38,0,0,1-2,.66,3.84,3.84,0,0,1-1.74-1.86,1.28,1.28,0,0,1,.16-1.15,2.07,2.07,0,0,0,.33-.83c0-.65-.49-.92-.87-1.24a3.1,3.1,0,0,1-.77-.92c-.25-.47.39-1.4,1-1.44a2,2,0,0,1,.74.07.54.54,0,0,0,.77-.47,1.08,1.08,0,0,0-.5-1.29c-1-.49-1.07-.94-.32-1.71a5.24,5.24,0,0,1,1.1-.9.91.91,0,0,1,1.25.11.77.77,0,0,0,.23.11c.5.08.28-.24.25-.45a1.27,1.27,0,0,1,1-1.61,5.82,5.82,0,0,0,1.78-1.05,1.69,1.69,0,0,1,1.47-.24,4.59,4.59,0,0,1,1.24,1c.32.4.57.23.85,0,.85-.74,1.7-1.5,2.52-2.27,1-.93,2-1.87,2.9-2.83a36.78,36.78,0,0,0,2.4-2.88c.22-.28.46-.53.66-.82s.77-.64.52-1.3c-.15-.39.46-1,.91-1.07s.8-.29,1.22-.35a3.74,3.74,0,0,1,1.06,0,8,8,0,0,0,1.8.46C213.13,12.4,213.35,12.27,213.52,12.4Z"/><path id="_路径_66" data-name="&lt;路径&gt;" class="cls-3" d="M201.38,59a27.25,27.25,0,0,0,.49,4.11c.28,1.87.61,3.73.91,5.6.07.43.14.87.22,1.3a3.28,3.28,0,0,1-1.33,3.15,8.27,8.27,0,0,1-2.77,1.65,1.29,1.29,0,0,1-.52,0,2.73,2.73,0,0,1-1.56-.79,22.69,22.69,0,0,0-2.59-2.19c-.63-.44-1.19-1-1.81-1.43-.42-.31-.42-.78-.58-1.2A16.86,16.86,0,0,0,189.77,66,8.2,8.2,0,0,0,187.83,64c-.3-.22,0-.44-.09-.65.15-.3.4-.18.63-.15a16.47,16.47,0,0,1,3,1.13c.79.47,1.55,1,2.35,1.46a16.19,16.19,0,0,1,2.17,1.31c.27.22.65,0,.68-.5s0-1.11,0-1.66c-.09-.22,0-.45-.08-.67l0-.63c-.07-.17,0-.37-.08-.54l0-.54c-.07-.21,0-.44-.08-.64l0-.86a3.24,3.24,0,0,1,0-1l0-1.28c.09-.53.09-.53-.23-.55l-4.8,1.18c-.5.12-1,.28-1.48.38A4.73,4.73,0,0,0,187.43,61c-.6.52-.84.51-1.49.06a34,34,0,0,1-4.84-3.87.53.53,0,0,1-.06-.82,12.87,12.87,0,0,1,2-1.81,6.92,6.92,0,0,1,.95-.84,3.21,3.21,0,0,1,.66-.29,3.53,3.53,0,0,1,1,0,4.67,4.67,0,0,0,1.3,0c.17-.08.37,0,.54-.08l3.65-.57c.33-.08.66,0,1-.07l2.45,0a9.45,9.45,0,0,0,1.09-.07,2,2,0,0,0,1.88-1.43,2.41,2.41,0,0,1,1.34-1.59,1,1,0,0,0,.59-.49,13.12,13.12,0,0,1-3.19-1.34,2.57,2.57,0,0,1-1-1.16,1.07,1.07,0,0,1,.64-1.6c.39-.15.81-.25,1.21-.37a5.25,5.25,0,0,1,1.17,0,1,1,0,0,0,.74.52,15.92,15.92,0,0,1,2.75.95,9.16,9.16,0,0,0,2,.38,1.58,1.58,0,0,1,1.11.64c.23.34.66.49.83.88a2.06,2.06,0,0,1,0,.74,4.17,4.17,0,0,1-1.4,1.37,4.22,4.22,0,0,0-.67.61.37.37,0,0,0-.05.49c.11.16.28.14.44.09,1.61-.49,3.28-.74,4.92-1.09a2.35,2.35,0,0,1,2.79,1.14,2.28,2.28,0,0,0,1.21,1c.66.25.71.45.51,1.12a12,12,0,0,1-.53,1.32,1.57,1.57,0,0,1-1.44.75,2.92,2.92,0,0,1-1.2-.1,3.73,3.73,0,0,0-2.19.16,34.28,34.28,0,0,1-5.39.93,1.34,1.34,0,0,0-1.31,1.29A3.37,3.37,0,0,0,201.38,59Z"/><path id="_路径_67" data-name="&lt;路径&gt;" class="cls-3" d="M190.33,41.08c-.56,1.43-1.49,2.68-2.06,4.1-.46.12-.94,0-1.4.09l-.32,0a2.69,2.69,0,0,1-.85,0l-1,0c-1.39,0-1.68-1-1.26-2.12s1.45-2,2.08-3a6.06,6.06,0,0,1,1.68-1.81,1,1,0,0,1,1.13-.06,4.44,4.44,0,0,1,2,2.31A1,1,0,0,1,190.33,41.08Z"/><path id="_路径_68" data-name="&lt;路径&gt;" class="cls-3" d="M205.47,44.64h2.46A6.92,6.92,0,0,1,205.47,44.64Z"/><path id="_路径_69" data-name="&lt;路径&gt;" class="cls-3" d="M214.72,17.12V15A5.36,5.36,0,0,1,214.72,17.12Z"/><path id="_路径_70" data-name="&lt;路径&gt;" class="cls-3" d="M203.75,44.54a6.58,6.58,0,0,1,1.61.09A5.93,5.93,0,0,1,203.75,44.54Z"/><path id="_路径_71" data-name="&lt;路径&gt;" class="cls-3" d="M186.87,45.27c.46-.2.94,0,1.4-.09A4.07,4.07,0,0,1,186.87,45.27Z"/><path id="_路径_72" data-name="&lt;路径&gt;" class="cls-3" d="M201.38,59a2.4,2.4,0,0,1,0-1.31Z"/><path id="_路径_73" data-name="&lt;路径&gt;" class="cls-3" d="M198.26,44.6h-1.17A1.77,1.77,0,0,1,198.26,44.6Z"/><path id="_路径_74" data-name="&lt;路径&gt;" class="cls-3" d="M195.6,52.59a2.88,2.88,0,0,1-1.09.07A2.93,2.93,0,0,1,195.6,52.59Z"/><path id="_路径_75" data-name="&lt;路径&gt;" class="cls-3" d="M200.29,44.62a3,3,0,0,1,1.09-.08A2.74,2.74,0,0,1,200.29,44.62Z"/><path id="_路径_76" data-name="&lt;路径&gt;" class="cls-3" d="M211.15,11.83h-1.06A1.39,1.39,0,0,1,211.15,11.83Z"/><path id="_路径_77" data-name="&lt;路径&gt;" class="cls-3" d="M196.86,22.37h-1A1.1,1.1,0,0,1,196.86,22.37Z"/><path id="_路径_78" data-name="&lt;路径&gt;" class="cls-3" d="M210.72,38.07a1.48,1.48,0,0,1,.94,0Z"/><path id="_路径_79" data-name="&lt;路径&gt;" class="cls-3" d="M192.06,52.7a3.38,3.38,0,0,1-1,.07A2.34,2.34,0,0,1,192.06,52.7Z"/><path id="_路径_80" data-name="&lt;路径&gt;" class="cls-3" d="M185.58,53.42h-1A1.22,1.22,0,0,1,185.58,53.42Z"/><path id="_路径_81" data-name="&lt;路径&gt;" class="cls-3" d="M196.2,60.11v1A1.19,1.19,0,0,1,196.2,60.11Z"/><path id="_路径_82" data-name="&lt;路径&gt;" class="cls-3" d="M196,58.27c.33-.05.35,0,.23.55C196.17,58.63,196.35,58.34,196,58.27Z"/><path id="_路径_83" data-name="&lt;路径&gt;" class="cls-3" d="M185.7,45.3h.85A1,1,0,0,1,185.7,45.3Z"/><path id="_路径_84" data-name="&lt;路径&gt;" class="cls-3" d="M193.35,35.7v-.84A1,1,0,0,1,193.35,35.7Z"/><path id="_路径_85" data-name="&lt;路径&gt;" class="cls-3" d="M216.31,21.18h-.74A.75.75,0,0,1,216.31,21.18Z"/><path id="_路径_86" data-name="&lt;路径&gt;" class="cls-3" d="M192.57,25.28c0,.19.33.57-.25.45C192.62,25.7,192.56,25.47,192.57,25.28Z"/><path id="_路径_87" data-name="&lt;路径&gt;" class="cls-3" d="M205.7,48.71V48A.75.75,0,0,1,205.7,48.71Z"/><path id="_路径_88" data-name="&lt;路径&gt;" class="cls-3" d="M188.37,63.2c-.22,0-.47-.12-.63.15C187.87,63,188.12,63.1,188.37,63.2Z"/><path id="_路径_89" data-name="&lt;路径&gt;" class="cls-3" d="M196.45,64.27a1.35,1.35,0,0,1,.08.67C196.36,64.73,196.46,64.49,196.45,64.27Z"/><path id="_路径_90" data-name="&lt;路径&gt;" class="cls-3" d="M196.22,61.92a1.2,1.2,0,0,1,.08.64C196.15,62.37,196.25,62.14,196.22,61.92Z"/><path id="_路径_91" data-name="&lt;路径&gt;" class="cls-3" d="M213.52,12.4c-.19-.06-.4,0-.57-.1C213.15,12.31,213.36,12.2,213.52,12.4Z"/><path id="_路径_92" data-name="&lt;路径&gt;" class="cls-3" d="M212.56,34.64a1,1,0,0,1-.54.08C212.19,34.58,212.38,34.65,212.56,34.64Z"/><path id="_路径_93" data-name="&lt;路径&gt;" class="cls-3" d="M213.32,34.53a.82.82,0,0,1-.55.08C212.94,34.46,213.14,34.55,213.32,34.53Z"/><path id="_路径_94" data-name="&lt;路径&gt;" class="cls-3" d="M187.42,53.34a.89.89,0,0,1-.54.08C187,53.27,187.24,53.35,187.42,53.34Z"/><path id="_路径_95" data-name="&lt;路径&gt;" class="cls-3" d="M196.33,63.1a.87.87,0,0,1,.08.54C196.27,63.48,196.35,63.28,196.33,63.1Z"/><path id="_路径_96" data-name="&lt;路径&gt;" class="cls-3" d="M190.33,41.08v-.53A.4.4,0,0,1,190.33,41.08Z"/><path id="_路径_97" data-name="&lt;路径&gt;" class="cls-3" d="M198.38,74.85h.52A.43.43,0,0,1,198.38,74.85Z"/><path id="_路径_98" data-name="&lt;路径&gt;" class="cls-3" d="M192.47,40.13a.89.89,0,0,1,.54.09C192.82,40.2,192.63,40.29,192.47,40.13Z"/><path id="_路径_99" data-name="&lt;路径&gt;" class="cls-3" d="M219.67,38.39v-.52A.42.42,0,0,1,219.67,38.39Z"/><path id="_路径_100" data-name="&lt;路径&gt;" class="cls-3" d="M208.16,27.74c.23,0,.66-.08.72.19s-.37.36-.62.49a3.23,3.23,0,0,1-.34.16c-.19.07-.42.13-.56,0s-.09-.41-.06-.61.3-.21.49-.23Z"/></g></g></g></g></svg>