<svg xmlns="http://www.w3.org/2000/svg" xmlns:xlink="http://www.w3.org/1999/xlink" viewBox="0 0 141.73 141.73"><defs><style>.cls-1{filter:url(#luminosity-noclip);}.cls-2{fill:#231815;}.cls-3,.cls-4{fill:#1d6bad;}.cls-4{font-size:13.31px;font-family:TimesNewRomanPS-BoldMT, Times New Roman;font-weight:700;}.cls-5{mask:url(#mask);}</style><filter id="luminosity-noclip" x="42.33" y="34.59" width="57.08" height="15.15" filterUnits="userSpaceOnUse" color-interpolation-filters="sRGB"><feFlood flood-color="#fff" result="bg"/><feBlend in="SourceGraphic" in2="bg"/></filter><mask id="mask" x="42.33" y="34.59" width="57.08" height="15.15" maskUnits="userSpaceOnUse"><g id="_编组_" data-name="&lt;编组&gt;" class="cls-1"><g id="_编组_2" data-name="&lt;编组&gt;"><path class="cls-2" d="M47.17,47.15a1,1,0,0,0,0,.3c0,.06.13.14.15,0a.82.82,0,0,0,0-.29c0-.09-.19-.16-.19-.06Z"/></g><g id="_编组_3" data-name="&lt;编组&gt;"><path class="cls-2" d="M50.46,46.94c.1,0-.1-.09-.14-.09s.1.09.14.09Z"/></g><g id="_编组_4" data-name="&lt;编组&gt;"><path class="cls-2" d="M48.44,45.54h.28c.08,0,0-.14-.07-.14h-.29c-.15,0,0,.13.08.13Z"/></g><g id="_编组_5" data-name="&lt;编组&gt;"><path class="cls-2" d="M54.83,45.16a2,2,0,0,0,0,.3c0,.05.13.14.14.05a1.84,1.84,0,0,0,0-.29c0-.09-.2-.15-.2-.06Z"/></g><g id="_编组_6" data-name="&lt;编组&gt;"><path class="cls-2" d="M57.77,46.66c.15,0,.15-.09,0-.09s-.15.09,0,.09Z"/></g><g id="_编组_7" data-name="&lt;编组&gt;"><path class="cls-2" d="M59.13,43.61c.13,0,.31-.23.12-.23s-.31.23-.12.23Z"/></g><g id="_编组_8" data-name="&lt;编组&gt;"><path class="cls-2" d="M60.38,46.09c.15,0,0-.1-.1-.1s0,.1.1.1Z"/></g><g id="_编组_9" data-name="&lt;编组&gt;"><path class="cls-2" d="M61.63,46c.08.38.41.4.75.37,0,0-.09-.14-.14-.12q-.35.13-.38-.2c0-.06-.23-.06-.23-.06Z"/></g><g id="_编组_10" data-name="&lt;编组&gt;"><path class="cls-2" d="M62.35,38.74c.15,0,0-.15-.07-.15s0,.15.07.15Z"/></g><g id="_编组_11" data-name="&lt;编组&gt;"><path class="cls-2" d="M65.43,42.43h.32c.15,0,0-.14-.08-.14h-.24c-.16,0-.16.15,0,.15Z"/></g><g id="_编组_12" data-name="&lt;编组&gt;"><path class="cls-2" d="M68.55,45.27h.32c.12,0,0-.15-.07-.15h-.24c-.16,0-.17.16,0,.16Z"/></g><g id="_编组_13" data-name="&lt;编组&gt;"><path class="cls-2" d="M64.9,44.67c.17,0,0-.09-.06-.09s0,.09.06.09Z"/></g><g id="_编组_14" data-name="&lt;编组&gt;"><path class="cls-2" d="M63.22,41.26c.16,0,0-.09-.11-.09s0,.09.11.09Z"/></g><g id="_编组_15" data-name="&lt;编组&gt;"><path class="cls-2" d="M72.71,40.92a1,1,0,0,0,0,.29s.14.14.15.06a1.21,1.21,0,0,0,0-.31c0-.09-.22-.14-.22,0Z"/></g><g id="_编组_16" data-name="&lt;编组&gt;"><path class="cls-2" d="M77.09,38.45h.58c.12,0,0-.15-.07-.15h-.55c-.16,0-.09.15,0,.15Z"/></g><g id="_编组_17" data-name="&lt;编组&gt;"><path class="cls-2" d="M80.77,39h.33c.15,0,0-.13-.08-.13h-.24c-.16,0-.16.13,0,.13Z"/></g><g id="_编组_18" data-name="&lt;编组&gt;"><path class="cls-2" d="M77.7,42.4h.58s-.08-.12-.14-.11a4.9,4.9,0,0,1-.55,0c-.15,0,0,.09.11.08Z"/></g><g id="_编组_19" data-name="&lt;编组&gt;"><path class="cls-2" d="M80.93,43.47a.7.7,0,0,0,0,.28s.15.15.17.07a1,1,0,0,0,0-.31c0-.09-.24-.11-.24,0Z"/></g><g id="_编组_20" data-name="&lt;编组&gt;"><path class="cls-2" d="M75.39,45.55h.32c.12,0,0-.14-.1-.14h-.28c-.14,0,0,.14.06.14Z"/></g><g id="_编组_21" data-name="&lt;编组&gt;"><path class="cls-2" d="M73.92,44l-.33,0s.09.11.15.11l.27,0c.15,0,0-.08-.09-.08Z"/></g><g id="_编组_22" data-name="&lt;编组&gt;"><path class="cls-2" d="M85.82,45.72h-.29c-.1,0,.07.11.13.11h.26c.15,0,0-.09-.11-.09Z"/></g><g id="_编组_23" data-name="&lt;编组&gt;"><path class="cls-2" d="M82.81,46.07l.31,0S83,46,83,46a1.3,1.3,0,0,1-.29,0c-.1,0,.11.06.14.06Z"/></g><g id="_编组_24" data-name="&lt;编组&gt;"><path class="cls-2" d="M83.64,43.8c.18,0,0-.05-.07-.05s0,.05.07.05Z"/></g><g id="_编组_25" data-name="&lt;编组&gt;"><path class="cls-2" d="M79.88,45.81c.11,0,.25-.09.07-.09s-.25.09-.07.09Z"/></g><g id="_编组_26" data-name="&lt;编组&gt;"><path class="cls-2" d="M80.47,40.47l.33,0c.14,0,.05-.15,0-.17l-.26,0c-.16,0-.22.21,0,.21Z"/></g><g id="_编组_27" data-name="&lt;编组&gt;"><path class="cls-2" d="M93,44.41h.11c.12.1.39-.16.18-.15h-.38c-.07,0,0,.14.08.14Z"/></g><g id="_编组_28" data-name="&lt;编组&gt;"><path class="cls-2" d="M90.93,46a2.48,2.48,0,0,0,0,.29s.07.14.08.08a1.53,1.53,0,0,0,0-.29s-.11-.15-.11-.09Z"/></g><g id="_编组_29" data-name="&lt;编组&gt;"><path class="cls-2" d="M93.29,46H93c-.07,0-.26.09-.1.1h.35c.11,0,.19-.08,0-.09Z"/></g><g id="_编组_30" data-name="&lt;编组&gt;"><path class="cls-2" d="M58,38.1h0s0,0,0,0a.6.6,0,0,0,.13.51l-.1-.43c-.14.42-.14.19,0,.26h.22l-.14.22s.17-.34.06-.41L58,38.14l.08.41v0c0-.11-.12-.41-.12-.42Z"/></g></g></mask></defs><title>校徽（蓝色）-Vector</title><g id="蓝色"><g id="_编组_31" data-name="&lt;编组&gt;"><g id="_编组_32" data-name="&lt;编组&gt;"><path id="_路径_" data-name="&lt;路径&gt;" class="cls-3" d="M27.17,59.09a19.91,19.91,0,0,0,4.06,12.68s5.28-7,4.77-9.49a13.33,13.33,0,0,1-2.72,1.87,22,22,0,0,0,0-9.2A20.79,20.79,0,0,0,30.11,63c0,.09-.16,0-.16,0S27.68,59.59,27.17,59.09Z"/><path id="_路径_2" data-name="&lt;路径&gt;" class="cls-3" d="M66.75,112.74a26.42,26.42,0,0,1-9.32,1c-3.23-.27-6.74-1.43-8.87-3.54,1.4.21,4.26.45,5.54-.44a48,48,0,0,1-7.73-1.53,12.54,12.54,0,0,1-6-4,37.39,37.39,0,0,1,7.43,1.2c.11-1.28-.26-1.66-1.64-1.82a18.33,18.33,0,0,1-6.65-2.24,13,13,0,0,1-5.08-4.83,12.72,12.72,0,0,1,4.1,1.37c.28.11.85.37,1.53.68v-.18a1.93,1.93,0,0,0-.57-1.34A8.6,8.6,0,0,0,38,96.37a23.61,23.61,0,0,1-9.88-9.77A35.11,35.11,0,0,1,33.34,89c.43-.82-.37-1.19-1.38-2a17.35,17.35,0,0,1-3.64-4.28,19.4,19.4,0,0,1-2-5.24,30,30,0,0,1,3.69,3c.11-.27.2-.49.22-.55a1.87,1.87,0,0,0-.48-1.53,20.84,20.84,0,0,1-2.57-4.91,23.83,23.83,0,0,1-.6-5.46q1.65,2.33,3.32,4.67a9,9,0,0,0,1.65,2,16.36,16.36,0,0,1,1.28-3.27,19.68,19.68,0,0,1,2.32-2.83,10.3,10.3,0,0,1-1,6.79A42.71,42.71,0,0,0,31.7,82a6.05,6.05,0,0,0,1.24,1c.25-.07,1.18-4.69,2.32-6.39.43,2.16.71,4.38,1.12,6.55.31,1.57-.73,4.76-1.43,6.71a13.53,13.53,0,0,0,2.4,1.61,15.54,15.54,0,0,1,.41-6.22,17,17,0,0,1,2.38,4.26,13.46,13.46,0,0,1,1.25,3.84c0,.22,0,.42,0,.64,0,1.34-.44,2.74,0,4a15.71,15.71,0,0,1,.44,1.51,19.88,19.88,0,0,0,2.71,1,16.13,16.13,0,0,1-1.25-2.92,5.66,5.66,0,0,1-.1-3.13,14.68,14.68,0,0,0,3.38,3.78A12.56,12.56,0,0,1,49,100.95a5.28,5.28,0,0,1,.58,1.35,20.15,20.15,0,0,1,.93,4c1.3.47,2.28.84,3.4,1.34l-3.27-6.12a23.51,23.51,0,0,1,9,5.79c1.08,1.14,2.07,2.38,3.25,3.42A15.34,15.34,0,0,0,66.75,112.74Z"/></g><g id="_编组_33" data-name="&lt;编组&gt;"><path id="_路径_3" data-name="&lt;路径&gt;" class="cls-3" d="M114.33,59.09a19.91,19.91,0,0,1-4.06,12.68s-5.28-7-4.77-9.49a13.33,13.33,0,0,0,2.72,1.87,22,22,0,0,1,0-9.2A20.79,20.79,0,0,1,111.39,63c0,.09.16,0,.16,0S113.82,59.59,114.33,59.09Z"/><path id="_路径_4" data-name="&lt;路径&gt;" class="cls-3" d="M74.75,112.74a26.42,26.42,0,0,0,9.32,1c3.23-.27,6.74-1.43,8.87-3.54-1.4.21-4.26.45-5.54-.44a48,48,0,0,0,7.73-1.53,12.54,12.54,0,0,0,6-4,37.39,37.39,0,0,0-7.43,1.2c-.11-1.28.26-1.66,1.64-1.82a18.33,18.33,0,0,0,6.65-2.24,13,13,0,0,0,5.08-4.83,12.72,12.72,0,0,0-4.1,1.37c-.28.11-.85.37-1.53.68v-.18A1.93,1.93,0,0,1,102,97.1a8.6,8.6,0,0,1,1.49-.73,23.61,23.61,0,0,0,9.88-9.77A35.11,35.11,0,0,0,108.16,89c-.43-.82.37-1.19,1.38-2a17.35,17.35,0,0,0,3.64-4.28,19.4,19.4,0,0,0,2-5.24,30,30,0,0,0-3.69,3c-.11-.27-.2-.49-.22-.55a1.87,1.87,0,0,1,.48-1.53,20.84,20.84,0,0,0,2.57-4.91,23.83,23.83,0,0,0,.6-5.46q-1.65,2.33-3.32,4.67a9,9,0,0,1-1.65,2,16.36,16.36,0,0,0-1.28-3.27,19.68,19.68,0,0,0-2.32-2.83,10.3,10.3,0,0,0,1,6.79A42.71,42.71,0,0,1,109.8,82a6.05,6.05,0,0,1-1.24,1c-.25-.07-1.18-4.69-2.32-6.39-.43,2.16-.71,4.38-1.12,6.55-.31,1.57.73,4.76,1.43,6.71a13.53,13.53,0,0,1-2.4,1.61,15.54,15.54,0,0,0-.41-6.22,17,17,0,0,0-2.38,4.26,13.46,13.46,0,0,0-1.25,3.84c0,.22,0,.42,0,.64,0,1.34.44,2.74,0,4a15.71,15.71,0,0,0-.44,1.51,19.88,19.88,0,0,1-2.71,1,16.13,16.13,0,0,0,1.25-2.92,5.66,5.66,0,0,0,.1-3.13,14.68,14.68,0,0,1-3.38,3.78,12.56,12.56,0,0,0-2.37,2.73,5.28,5.28,0,0,0-.58,1.35,20.15,20.15,0,0,0-.93,4c-1.3.47-2.28.84-3.4,1.34l3.27-6.12a23.51,23.51,0,0,0-9,5.79c-1.08,1.14-2.07,2.38-3.25,3.42A15.34,15.34,0,0,1,74.75,112.74Z"/></g><path id="_路径_5" data-name="&lt;路径&gt;" class="cls-3" d="M45,53.82h2.45c.25,0,.25-1.14.25-1.14h1.85v7.38H51v2.09H45V60.1h1.7V56H45Z"/><path id="_路径_6" data-name="&lt;路径&gt;" class="cls-3" d="M73.6,55.88h2.13s.14-1.32,1.28-1.32,1.47.68,1.25,1.37c-1,1.85-3.36,1.73-4.66,4.64v1.51H81V59.42H79v1.06H75.87c.83-2,5.49-1.19,5.15-5.32a3.11,3.11,0,0,0-3.39-2.66C74.47,52.5,73.43,55,73.6,55.88Z"/><path id="_复合路径_" data-name="&lt;复合路径&gt;" class="cls-3" d="M58.41,55.88c.07-1.64.73-3.2,3.9-3.2s4.26,2,4.26,4.74-.64,5-4.08,5-3.8-2.48-3.8-2.48h2.56c.71,1.68,3.11.59,2.7-1.45C60.54,59.61,58.57,58.63,58.41,55.88Zm4.08-1.34A1.44,1.44,0,1,0,63.85,56,1.4,1.4,0,0,0,62.49,54.54Z"/><path id="_复合路径_2" data-name="&lt;复合路径&gt;" class="cls-3" d="M87.93,55.88c.07-1.64.73-3.2,3.9-3.2s4.26,2,4.26,4.74-.64,5-4.08,5-3.8-2.48-3.8-2.48h2.56c.71,1.68,3.11.59,2.7-1.45C90.06,59.61,88.1,58.63,87.93,55.88ZM92,54.54A1.44,1.44,0,1,0,93.37,56,1.4,1.4,0,0,0,92,54.54Z"/><text class="cls-4" transform="translate(17.92 46.03) rotate(110.53)">C</text><text class="cls-4" transform="translate(13.75 58.07) rotate(97.56)">H</text><text class="cls-4" transform="translate(12.33 71.46) rotate(84.47)">O</text><text class="cls-4" transform="translate(14.02 84.83) rotate(71.53)">N</text><text class="cls-4" transform="translate(18.35 96.81) rotate(58.59)">G</text><text class="cls-4" transform="translate(25.69 108.12) rotate(45.39)">Q</text><text class="cls-4" transform="translate(35.32 117.18) rotate(34.97)">I</text><text class="cls-4" transform="matrix(0.91, 0.42, -0.42, 0.91, 41.92, 121.73)">N</text><text class="cls-4" transform="translate(53.61 126.81) rotate(11.92)">G</text><text class="cls-4" transform="translate(66.52 129) rotate(2.5)"> </text><text class="cls-4" transform="translate(72.2 129.14) rotate(-3.01)"> </text><text class="cls-4" transform="translate(78.27 128.85) rotate(-12.06)">U</text><text class="cls-4" transform="translate(90.6 125.87) rotate(-24.61)">N</text><text class="cls-4" transform="translate(101.71 120.3) rotate(-34.69)">I</text><text class="cls-4" transform="translate(108.28 115.68) rotate(-44.7)">V</text><text class="cls-4" transform="translate(117 106.55) rotate(-56.71)">E</text><text class="cls-4" transform="matrix(0.36, -0.93, 0.93, 0.36, 123.31, 96.42)">R</text><text class="cls-4" transform="translate(127.47 84.59) rotate(-80.16)">S</text><text class="cls-4" transform="translate(128.9 74.6) rotate(-88.96)">I</text><text class="cls-4" transform="matrix(-0.15, -0.99, 0.99, -0.15, 128.97, 66.64)">T</text><text class="cls-4" transform="translate(126.92 54.9) rotate(-110.66)">Y</text><path id="_复合路径_3" data-name="&lt;复合路径&gt;" class="cls-3" d="M134.52,70.86A63.65,63.65,0,1,1,70.86,7.21,63.65,63.65,0,0,1,134.52,70.86ZM70.86,2.67a68.19,68.19,0,1,0,68.19,68.19A68.19,68.19,0,0,0,70.86,2.67Z"/><g class="cls-5"><path id="齿轮" class="cls-3" d="M98.71,49.74H43a.69.69,0,0,1-.59-1.06,29,29,0,0,1,5.8-6.39.69.69,0,0,1,1,.08l1.33,1.54.61.71a.69.69,0,0,0,.87.15l4.55-2.66a.69.69,0,0,0,.31-.82l-1-3a.7.7,0,0,1,.38-.86,36,36,0,0,1,9.9-2.74.7.7,0,0,1,.78.62c.06.59.14,1.46.21,2.19s.08,1.07.34,1.33,5.88.15,5.88.15a.69.69,0,0,0,.69-.6l.41-3.15a.7.7,0,0,1,.77-.61,36.36,36.36,0,0,1,9.73,2.55.7.7,0,0,1,.38.87l-1,3a.69.69,0,0,0,.28.81l4.5,2.9a.69.69,0,0,0,.9-.13l2.2-2.54a.7.7,0,0,1,1-.09,29,29,0,0,1,6.18,6.71A.69.69,0,0,1,98.71,49.74Z"/></g><g id="_编组_34" data-name="&lt;编组&gt;"><rect id="_路径_7" data-name="&lt;路径&gt;" class="cls-3" x="69.02" y="109.87" width="3.7" height="1.14"/><rect class="cls-3" x="67.76" y="107.76" width="6.22" height="1.14"/><rect class="cls-3" x="66.5" y="105.64" width="8.73" height="1.14"/><rect class="cls-3" x="65.24" y="103.53" width="11.25" height="1.14"/><rect class="cls-3" x="63.98" y="101.41" width="13.76" height="1.14"/><rect class="cls-3" x="62.73" y="99.3" width="16.28" height="1.14"/><rect class="cls-3" x="61.47" y="97.18" width="18.79" height="1.14"/><rect class="cls-3" x="60.21" y="95.07" width="21.31" height="1.14"/><rect class="cls-3" x="58.95" y="92.95" width="23.82" height="1.14"/><rect class="cls-3" x="57.69" y="90.84" width="26.34" height="1.14"/><rect class="cls-3" x="56.44" y="88.72" width="28.86" height="1.14"/><rect class="cls-3" x="55.18" y="86.61" width="31.37" height="1.14"/><rect class="cls-3" x="53.92" y="84.49" width="33.89" height="1.14"/><rect class="cls-3" x="52.66" y="82.38" width="36.4" height="1.14"/><rect class="cls-3" x="51.41" y="80.26" width="38.92" height="1.14"/><rect class="cls-3" x="50.15" y="78.15" width="41.43" height="1.14"/><rect class="cls-3" x="48.89" y="76.03" width="43.95" height="1.14"/><rect class="cls-3" x="47.63" y="73.92" width="46.47" height="1.14"/><rect class="cls-3" x="46.37" y="71.8" width="48.98" height="1.14"/><rect class="cls-3" x="45.12" y="69.69" width="51.5" height="1.14"/><rect id="_路径_8" data-name="&lt;路径&gt;" class="cls-3" x="43.86" y="67.57" width="54.01" height="1.14"/></g><g id="_编组_35" data-name="&lt;编组&gt;"><path id="_复合路径_4" data-name="&lt;复合路径&gt;" class="cls-3" d="M70.87,117.87,30.68,48.17H111l-.91,1.7ZM34.61,50.44l36.25,62.88,36.25-62.88Z"/><rect id="_路径_9" data-name="&lt;路径&gt;" class="cls-3" x="41.84" y="64.11" width="57.94" height="2.27"/><path id="_复合路径_5" data-name="&lt;复合路径&gt;" class="cls-3" d="M81.22,99.92l-5.1-9.12L70.8,99.87l-1-1.6L65.4,90.8l-4.12,7.37-2-1.11,4.77-8.54L60.24,82l-4.38,6.9-1.92-1.22,6.37-10,5,8.58,5.35-9.56,1,1.66,4.42,7.9,5-8.58,6.74,10.62ZM66.68,88.5l4.08,7,4.08-7-4.08-7.28Zm10.77,0,3.8,6.79,4-7-4-6.32Z"/></g><g id="校名毛笔字"><g id="学"><path id="_路径_10" data-name="&lt;路径&gt;" class="cls-3" d="M43,32.61a5.94,5.94,0,0,0,.11,1.23c0,.35.09.71.1,1.06a.62.62,0,0,1-.44.64,1.92,1.92,0,0,1-.89.24.44.44,0,0,1-.4-.3A4.84,4.84,0,0,1,41.19,34c-.06-.63-.1-1.27-.13-1.91A8.9,8.9,0,0,1,41,31a.34.34,0,0,0,0-.16,1.34,1.34,0,0,0-.17.39c-.28.84-.58,1.68-.79,2.55a13.6,13.6,0,0,0-.22,1.63,7,7,0,0,1-.32,1.72,3.08,3.08,0,0,1-.37.66.69.69,0,0,1-.52.28,7.88,7.88,0,0,0-2,.55,1.25,1.25,0,0,1-.72.1.47.47,0,0,1-.15-.17,1.07,1.07,0,0,1,0-1.11c.29-.67.62-1.32.93-2l.74-1.61,1.4-3.08c.41-.9.81-1.79,1.2-2.7a.41.41,0,0,0-.26-.61.59.59,0,0,1-.4-.23.69.69,0,0,1,.09-.81l.39-.51c0-.06.11-.08.13-.15l.13-.13a1.61,1.61,0,0,1,.31-.28,1.38,1.38,0,0,1,1.13.11.2.2,0,0,1,.12.19.53.53,0,0,0,.07.23l.16-.14a.55.55,0,0,1,.63-.12c.28.11.57.22.84.36a.81.81,0,0,1,.18.2.91.91,0,0,1,0,.69,9.19,9.19,0,0,1-.46,1.06,1,1,0,0,0,0,.92c0,.12.1,0,.13,0a2.4,2.4,0,0,0,.31-1.13.59.59,0,0,1,.2-.17c.3-.05.6,0,.9-.1a.76.76,0,0,1,.59.08,1.45,1.45,0,0,1,.25.29,2.34,2.34,0,0,1,.19,1c0,.43.12.85.13,1.29a5.55,5.55,0,0,1-.11,1.22c0,.19-.22.28-.36.38a1.25,1.25,0,0,1-.31.17c-.14.05-.15.14-.12.27a9.25,9.25,0,0,0,.47,1.16c.12.31.25.61.36.92a.18.18,0,0,0,.21.14,1.31,1.31,0,0,1,1,.26,1.7,1.7,0,0,1,.28.32A3.33,3.33,0,0,1,47.39,36c0,.2.06.4.09.66.26-.53.43-1.05.68-1.53.05-.1.17-.13.22-.23l.07-.08a.52.52,0,0,1,.17-.15h.23a.37.37,0,0,1,.39.31,4.49,4.49,0,0,1,.1.44.59.59,0,0,0,.34.45c.07,0,.12.09.19.13a.29.29,0,0,1,.12.42l-.4.73c-.36.63-.71,1.26-1.07,1.88-.12.21-.27.42-.4.62a.82.82,0,0,1-.2.18,1,1,0,0,1-.67,0c-.17,0-.34-.12-.51-.14s-.42-.24-.5-.51a6.66,6.66,0,0,0-.38-1.24c-.29-.55-.53-1.13-.79-1.7-.06-.13-.12-.22-.31-.12a.47.47,0,0,1-.61-.14,1.52,1.52,0,0,1-.25-.28c-.18-.27-.19-.27,0-.53a.42.42,0,0,0,0-.46c-.25-.57-.5-1.14-.71-1.72a2.24,2.24,0,0,0-.13-.25S43.06,32.55,43,32.61Z"/><path id="_路径_11" data-name="&lt;路径&gt;" class="cls-3" d="M36,20.84a1.44,1.44,0,0,1-.18-1.16A1.77,1.77,0,0,1,36,18.9a.58.58,0,0,1,.17-.15,1.53,1.53,0,0,1,.4,0,.43.43,0,0,1,.33.16,1.92,1.92,0,0,0,.57.44.51.51,0,0,0,.26.05,1.48,1.48,0,0,1,.8.13,1.3,1.3,0,0,1,.57.89,13.42,13.42,0,0,1,.25,2.46,7.78,7.78,0,0,1,0,1.51c-.05.33-.15.65-.19,1q-.13.91-.22,1.82a9.83,9.83,0,0,0,0,1.8,1.48,1.48,0,0,1-.13.86.54.54,0,0,1-.17.15A.93.93,0,0,1,38,30a.16.16,0,0,1-.12-.11,10.83,10.83,0,0,1-.53-2.49c-.11-.95-.23-1.9-.36-2.84-.1-.73-.15-1.46-.22-2.2a1.8,1.8,0,0,0-.36-.93C36.28,21.18,36.08,21,36,20.84Z"/><path id="_路径_12" data-name="&lt;路径&gt;" class="cls-3" d="M36,20.84a5.9,5.9,0,0,1,.44.54A3,3,0,0,1,36,20.84Z"/><path id="_路径_13" data-name="&lt;路径&gt;" class="cls-3" d="M40.32,25.29l-.31.28A.61.61,0,0,1,40.32,25.29Z"/><path id="_路径_14" data-name="&lt;路径&gt;" class="cls-3" d="M47.15,34.81l-.28-.32A.62.62,0,0,1,47.15,34.81Z"/><path id="_路径_15" data-name="&lt;路径&gt;" class="cls-3" d="M45.36,27.71l-.25-.29A.51.51,0,0,1,45.36,27.71Z"/><path id="_路径_16" data-name="&lt;路径&gt;" class="cls-3" d="M43.9,35.64l.25.28A.52.52,0,0,1,43.9,35.64Z"/><path id="_路径_17" data-name="&lt;路径&gt;" class="cls-3" d="M48.38,34.86c0,.11-.15.16-.22.23C48.19,35,48.3,34.94,48.38,34.86Z"/><path id="_路径_18" data-name="&lt;路径&gt;" class="cls-3" d="M43.44,26.12l-.18-.2A.28.28,0,0,1,43.44,26.12Z"/><path id="_路径_19" data-name="&lt;路径&gt;" class="cls-3" d="M47.92,39.8l.2-.18A.28.28,0,0,1,47.92,39.8Z"/><path id="_路径_20" data-name="&lt;路径&gt;" class="cls-3" d="M43.63,27.45l-.2.17A.25.25,0,0,1,43.63,27.45Z"/><path id="_路径_21" data-name="&lt;路径&gt;" class="cls-3" d="M48.62,34.63l-.17.15A.2.2,0,0,1,48.62,34.63Z"/><path id="_路径_22" data-name="&lt;路径&gt;" class="cls-3" d="M36.22,18.75,36,18.9A.2.2,0,0,1,36.22,18.75Z"/><path id="_路径_23" data-name="&lt;路径&gt;" class="cls-3" d="M38.61,30l.17-.15A.2.2,0,0,1,38.61,30Z"/><path id="_路径_24" data-name="&lt;路径&gt;" class="cls-3" d="M35.7,38.5l.15.17A.19.19,0,0,1,35.7,38.5Z"/><path id="_路径_25" data-name="&lt;路径&gt;" class="cls-3" d="M39.87,25.7a.35.35,0,0,1-.13.15C39.75,25.77,39.83,25.74,39.87,25.7Z"/><path id="_路径_26" data-name="&lt;路径&gt;" class="cls-3" d="M43,32.61c.1-.08.09,0,.11.07S43,32.6,43,32.61Z"/></g><g id="大"><path id="_路径_27" data-name="&lt;路径&gt;" class="cls-3" d="M85.85,21.34l-.06.18c-.05,0,0,.13-.08.18l-.06.18c-.05,0,0,.13-.08.18l-.06.18c-.05,0,0,.13-.08.18s.06.11.1.1a13.93,13.93,0,0,0,1.62,0,.6.6,0,0,0,.26-.11.26.26,0,0,0,.1-.35,1.15,1.15,0,0,1-.07-.92c.06-.17.18-.22.28-.09a1,1,0,0,0,.86.41.44.44,0,0,1,.32.16c.12.16.33.15.49.25a.78.78,0,0,1,.42.6,2.4,2.4,0,0,1-.12.44,1.59,1.59,0,0,1-1.18,1,12.41,12.41,0,0,1-3,.36c-.21,0-.43,0-.64,0-.05,0-.12,0-.15.06s0,.13-.08.18a1.51,1.51,0,0,0,.26.74,11.53,11.53,0,0,1,.88,2.31,3.48,3.48,0,0,0,1.35,2,4.17,4.17,0,0,0,1.07.57c.06.06.16,0,.22.09l.18.06c0,.05.13,0,.18.08.3.25.3.32,0,.54a2.88,2.88,0,0,1-1.08.54h-.06c-.07,0-.13,0-.19,0l-.5-.08a1.68,1.68,0,0,1-.37-.1A3,3,0,0,0,85.45,31a.46.46,0,0,1-.18,0,.5.5,0,0,1-.3-.41A24.15,24.15,0,0,1,84.51,28,13.68,13.68,0,0,0,84,25.44a2,2,0,0,0-.22.42,4.5,4.5,0,0,1-2.6,1.89,6.25,6.25,0,0,1-1.23,0,8.09,8.09,0,0,1-1-.1,8.31,8.31,0,0,1-.85-.23,1.26,1.26,0,0,1-.79-.65,1,1,0,0,1,.27-.93.07.07,0,0,1,.1,0,1.22,1.22,0,0,0,1,.34A6.15,6.15,0,0,0,80.57,26a3.47,3.47,0,0,0,1.61-1.26c.15-.2.14-.2-.1-.24a.86.86,0,0,0-.67.2,2.63,2.63,0,0,1-.88.4c-.1,0-.14-.05-.18-.11a1.9,1.9,0,0,1-.17-.3,1.1,1.1,0,0,0-.45-.51.27.27,0,0,1-.13-.29,1.44,1.44,0,0,1,.71-1,.43.43,0,0,1,.2,0c.72,0,1.44-.05,2.16-.1a1.07,1.07,0,0,0,1-.7c.24-.49.45-1,.67-1.5s.38-.93.58-1.39.42-1,.63-1.45c.13-.31.25-.63.37-.94.05,0,0-.12.08-.18.19-.26,0-.41-.15-.59s-.16-.36.09-.51l.27-.18a2,2,0,0,1,1.42-.23.23.23,0,0,1,.2.18,5.18,5.18,0,0,0,.45,1.07.84.84,0,0,1-.28,1.11A3.52,3.52,0,0,0,86.8,19a11.53,11.53,0,0,0-.61,1.52c-.05,0,0,.13-.08.18a2.2,2.2,0,0,0-.18.5C85.87,21.21,85.89,21.28,85.85,21.34Z"/><path id="_路径_28" data-name="&lt;路径&gt;" class="cls-3" d="M78.1,27.46l.85.23A2.67,2.67,0,0,1,78.1,27.46Z"/><path id="_路径_29" data-name="&lt;路径&gt;" class="cls-3" d="M89.69,22.89l.12-.44A.75.75,0,0,1,89.69,22.89Z"/><path id="_路径_30" data-name="&lt;路径&gt;" class="cls-3" d="M86.59,31.27l.37.1A.53.53,0,0,1,86.59,31.27Z"/><path id="_路径_31" data-name="&lt;路径&gt;" class="cls-3" d="M88.46,30.24a.44.44,0,0,1-.22-.09C88.31,30.18,88.4,30.17,88.46,30.24Z"/><path id="_路径_32" data-name="&lt;路径&gt;" class="cls-3" d="M86,16.59a.3.3,0,0,1-.08.18C85.9,16.71,85.89,16.64,86,16.59Z"/><path id="_路径_33" data-name="&lt;路径&gt;" class="cls-3" d="M85.71,21.7a.32.32,0,0,1,.08-.18C85.77,21.58,85.78,21.66,85.71,21.7Z"/><path id="_路径_34" data-name="&lt;路径&gt;" class="cls-3" d="M85.57,22.06a.36.36,0,0,1,.08-.18C85.63,21.94,85.64,22,85.57,22.06Z"/><path id="_路径_35" data-name="&lt;路径&gt;" class="cls-3" d="M88.82,30.38a.39.39,0,0,1-.18-.08C88.7,30.32,88.78,30.31,88.82,30.38Z"/><path id="_路径_36" data-name="&lt;路径&gt;" class="cls-3" d="M85.44,22.42a.32.32,0,0,1,.08-.18C85.49,22.3,85.5,22.38,85.44,22.42Z"/><path id="_路径_37" data-name="&lt;路径&gt;" class="cls-3" d="M84.68,24.49a.31.31,0,0,1,.08-.18C84.74,24.37,84.75,24.45,84.68,24.49Z"/><path id="_路径_38" data-name="&lt;路径&gt;" class="cls-3" d="M85.85,21.34a.32.32,0,0,1,.08-.18C85.9,21.22,85.91,21.29,85.85,21.34Z"/><path id="_路径_39" data-name="&lt;路径&gt;" class="cls-3" d="M86.11,20.65a.33.33,0,0,1,.08-.18C86.17,20.53,86.18,20.61,86.11,20.65Z"/><path id="_路径_40" data-name="&lt;路径&gt;" class="cls-3" d="M85.27,31l.18,0A.15.15,0,0,1,85.27,31Z"/><path id="_路径_41" data-name="&lt;路径&gt;" class="cls-3" d="M87.45,31.45a.29.29,0,0,1,.19,0C87.58,31.51,87.52,31.46,87.45,31.45Z"/></g><g id="庆"><path id="_路径_42" data-name="&lt;路径&gt;" class="cls-3" d="M61.69,20.94a.21.21,0,0,0-.24.16c-.26.68-.43,1.39-.66,2.09-.39,1.16-.8,2.32-1.19,3.48-.28.81-.53,1.62-.82,2.42a21.84,21.84,0,0,0-.8,2.32c-.12.5-.2,1-.33,1.5a1.72,1.72,0,0,1-.58,1,.85.85,0,0,1-1.34-.35,2.79,2.79,0,0,1-.15-.44c0-.07,0-.13,0-.2a3.39,3.39,0,0,1,.25-2c.29-.6.64-1.18.94-1.78a16.37,16.37,0,0,0,.68-1.6c.17-.47.36-.93.54-1.39s.34-.91.55-1.35c.27-.59.48-1.21.73-1.81s.44-1.1.65-1.65.38-.82.57-1.23l.84-1.76.78-1.65c.13-.28.26-.57.4-.84,0-.07.1-.15,0-.22s-.13,0-.19.08a29.23,29.23,0,0,1-3.09,2.19A2,2,0,0,1,58,18.2a1.14,1.14,0,0,1-.84-.43,1.32,1.32,0,0,0-.63-.36.32.32,0,0,1-.22-.34.64.64,0,0,1,.32-.6,2.94,2.94,0,0,1,.67-.35c.26-.11.53-.18.79-.27a.45.45,0,0,0,.19-.08,8,8,0,0,0,1.79-.92c.19-.11.36-.25.55-.38s.11-.1,0-.15c-.3-.15-.61-.26-.92-.39A1.92,1.92,0,0,1,58.58,13a2,2,0,0,1-.13-.4.59.59,0,0,1,.21-.52A1.36,1.36,0,0,1,59,12a6.94,6.94,0,0,1,1.14.11,7.15,7.15,0,0,0,1.13.1,2.64,2.64,0,0,0,.84-.13.85.85,0,0,1,.58,0,3.15,3.15,0,0,0,.51.15.59.59,0,0,1,.44.33c.05.09.09.22.21.18a.32.32,0,0,0,.2-.3.74.74,0,0,1,0-.31.61.61,0,0,1,.78-.32,4.81,4.81,0,0,0,.63.27.85.85,0,0,1,.43.41c.1.17.2.34.3.51s0,.13.09.18c.18.38-.11.59-.32.82a7.86,7.86,0,0,1-.93.8c-.29.24-.49.56-.75.82s-.33.36-.5.55l-.07.09c0,.06-.08.15,0,.19s.14,0,.21,0a.47.47,0,0,1,.12-.06c.05,0,.13,0,.18-.09.21,0,.34-.2.5-.3a.51.51,0,0,1,.18-.06c.37.1.39.14.38.52,0,.13-.06.31.05.37s.21-.09.32-.14l.12-.06a.89.89,0,0,1,.25-.08.69.69,0,0,1,.59.28c.16.22.44.32.59.56,0,.05,0,.13.09.18a.42.42,0,0,1-.09.49,8.5,8.5,0,0,1-.85.86,3.88,3.88,0,0,0-.33.37.12.12,0,0,0,0,.16c.05.07.1,0,.15,0a1.17,1.17,0,0,0,.28-.15.87.87,0,0,1,.29-.09l.49.15a1.36,1.36,0,0,1,.9.78c0,.11.06.2.07.3s0,.3,0,.45a.49.49,0,0,1-.29.45c-.28.12-.58.19-.87.29a.44.44,0,0,0-.19.08.91.91,0,0,0-.42.45c0,.08-.07.16.1.16a.39.39,0,0,1,.3.55,1.65,1.65,0,0,0-.08.19c-.09.25-.08.24.19.28a2,2,0,0,1,1.08.56.37.37,0,0,1,.1.38,18.8,18.8,0,0,1-.46,1.85c0,.07,0,.12,0,.16a2.36,2.36,0,0,0,1,.41.38.38,0,0,0,.13,0c.08,0,.15,0,.23,0a.21.21,0,0,1,.23.19,1.12,1.12,0,0,1-.51,1.42,2.29,2.29,0,0,1-.43.14,1.31,1.31,0,0,1-1-.16c-.13-.08-.2-.22-.34-.29s-.11,0-.14.06a1.72,1.72,0,0,1-.2.61.76.76,0,0,1-.21.21,1,1,0,0,1-.29.09l-.15,0c-.07,0-.13,0-.19,0a4.74,4.74,0,0,1-.95.1c-.28,0-.41-.12-.37-.4a1.13,1.13,0,0,1,.2-.66.24.24,0,0,1,.17-.11.59.59,0,0,0,.53-.34c.1-.15.22-.29.32-.43a.44.44,0,0,0,.08-.34.39.39,0,0,0-.07-.24,1.08,1.08,0,0,1-.2-.54.36.36,0,0,1,.23-.36c.05,0,.13,0,.18-.09.37-.09.46-.32.39-.55a.15.15,0,0,0-.27-.07,6.53,6.53,0,0,0-.44.53A1.14,1.14,0,0,1,65,26c-.3.06-.34.24-.41.47a21.82,21.82,0,0,1-.91,2.65c-.12.28-.16.59-.28.87a1.64,1.64,0,0,1-.37.57.63.63,0,0,1-.25.08A1,1,0,0,1,61.62,30a.71.71,0,0,1,.1-.69c.14-.22.21-.46.32-.68s.17-.42.26-.63c.2-.46.4-.93.57-1.4.12-.31.27-.61.4-.92A17.24,17.24,0,0,0,64,23.93c.06-.21,0-.27-.2-.34l-.32-.1c-.34-.1-.4-.19-.36-.53s0-.47.34-.44c-.1-.14-.24-.14-.35-.18s-.5-.13-.6-.43a.49.49,0,0,0-.19-.22.62.62,0,0,1-.26-.84c0-.06-.05,0-.08,0l0,0A.6.6,0,0,1,61.69,20.94Z"/><path id="_路径_43" data-name="&lt;路径&gt;" class="cls-3" d="M62.92,24.33a1.91,1.91,0,0,1,0,1.12.76.76,0,0,1-.43.41,2.74,2.74,0,0,1-.94.26.61.61,0,0,1-.7-.62,2.79,2.79,0,0,1,.16-.67,1.78,1.78,0,0,1,.41-.69,4.55,4.55,0,0,1,.6-.81c.09-.08.18-.17.31-.12s.27.14.27.31a.61.61,0,0,0,.25.45A1.79,1.79,0,0,1,62.92,24.33Z"/><path id="_路径_44" data-name="&lt;路径&gt;" class="cls-3" d="M66.86,21.68a2.73,2.73,0,0,1,.64-.24l.42-.13a2.78,2.78,0,0,1-.64.24Z"/><path id="_路径_45" data-name="&lt;路径&gt;" class="cls-3" d="M58.32,15.76a8.51,8.51,0,0,1-1,.35,4.54,4.54,0,0,1,.78-.29Z"/><path id="_路径_46" data-name="&lt;路径&gt;" class="cls-3" d="M68.38,28.35l.43-.14A.75.75,0,0,1,68.38,28.35Z"/><path id="_路径_47" data-name="&lt;路径&gt;" class="cls-3" d="M58.45,12.61l.13.4A.65.65,0,0,1,58.45,12.61Z"/><path id="_路径_48" data-name="&lt;路径&gt;" class="cls-3" d="M62.92,24.33,62.81,24A.54.54,0,0,1,62.92,24.33Z"/><path id="_路径_49" data-name="&lt;路径&gt;" class="cls-3" d="M59,12l-.32.11A.45.45,0,0,1,59,12Z"/><path id="_路径_50" data-name="&lt;路径&gt;" class="cls-3" d="M66.7,19.18l-.29.09A.33.33,0,0,1,66.7,19.18Z"/><path id="_路径_51" data-name="&lt;路径&gt;" class="cls-3" d="M66.17,28.87l.29-.09A.35.35,0,0,1,66.17,28.87Z"/><path id="_路径_52" data-name="&lt;路径&gt;" class="cls-3" d="M68.16,20.41a.71.71,0,0,1-.07-.3C68.11,20.21,68.18,20.3,68.16,20.41Z"/><path id="_路径_53" data-name="&lt;路径&gt;" class="cls-3" d="M66,16.53l-.25.08A.28.28,0,0,1,66,16.53Z"/><path id="_路径_54" data-name="&lt;路径&gt;" class="cls-3" d="M62.73,30.63l.25-.08A.26.26,0,0,1,62.73,30.63Z"/><path id="_路径_55" data-name="&lt;路径&gt;" class="cls-3" d="M61.69,20.94l.21-.07A.21.21,0,0,1,61.69,20.94Z"/><path id="_路径_56" data-name="&lt;路径&gt;" class="cls-3" d="M65.73,26.52a.25.25,0,0,1,.07.24Z"/><path id="_路径_57" data-name="&lt;路径&gt;" class="cls-3" d="M69.1,26.6a.47.47,0,0,1-.23,0C68.95,26.63,69,26.57,69.1,26.6Z"/><path id="_路径_58" data-name="&lt;路径&gt;" class="cls-3" d="M66.29,13.19A.38.38,0,0,1,66.2,13C66.27,13,66.26,13.12,66.29,13.19Z"/><path id="_路径_59" data-name="&lt;路径&gt;" class="cls-3" d="M64.87,15.93,64.7,16A.16.16,0,0,1,64.87,15.93Z"/><path id="_路径_60" data-name="&lt;路径&gt;" class="cls-3" d="M64.19,16.28a.32.32,0,0,1-.18.09C64.05,16.3,64.13,16.31,64.19,16.28Z"/><path id="_路径_61" data-name="&lt;路径&gt;" class="cls-3" d="M61.94,20.85s0-.08.09-.07,0,0,0,.07Z"/><path id="_路径_62" data-name="&lt;路径&gt;" class="cls-3" d="M65.82,28.94a.31.31,0,0,1,.19,0C66,28.92,65.89,29,65.82,28.94Z"/><path id="_路径_63" data-name="&lt;路径&gt;" class="cls-3" d="M65.94,25.54a.41.41,0,0,1-.18.09C65.8,25.56,65.88,25.57,65.94,25.54Z"/><path id="_路径_64" data-name="&lt;路径&gt;" class="cls-3" d="M55.54,32.92a.35.35,0,0,1,0,.2C55.56,33,55.51,33,55.54,32.92Z"/><path id="_路径_65" data-name="&lt;路径&gt;" class="cls-3" d="M67.26,17.56a.37.37,0,0,1-.09-.18C67.24,17.42,67.24,17.5,67.26,17.56Z"/><path id="_路径_66" data-name="&lt;路径&gt;" class="cls-3" d="M65.14,20a7.45,7.45,0,0,0-.46.92c0,.12-.12.12-.23.12a10,10,0,0,0-1.29.08s-.07,0-.06-.05a11.57,11.57,0,0,1,1.69-1L65,20S65.12,19.91,65.14,20Z"/><path id="_路径_67" data-name="&lt;路径&gt;" class="cls-3" d="M64.9,21.4l.39-.25a1.55,1.55,0,0,0,.58-.65.25.25,0,0,1,.2-.15,2.84,2.84,0,0,1,.45-.07c.09,0,.13,0,.16.12s0,.1-.1.13a1.6,1.6,0,0,0-.7.54A1.21,1.21,0,0,1,64.9,21.4Z"/><path id="_路径_68" data-name="&lt;路径&gt;" class="cls-3" d="M64.24,17.28s0,.09,0,.12l-.39.21c-.08,0-.08,0-.09-.08s0-.24,0-.36-.07-.21.08-.23.26,0,.34.1S64.2,17.19,64.24,17.28Z"/><path id="_路径_69" data-name="&lt;路径&gt;" class="cls-3" d="M64.24,18.94c-.13,0-.23.11-.29,0s0-.18.12-.23l.37-.2s.11-.1.16,0,.08.14,0,.22A1,1,0,0,1,64.24,18.94Z"/><path id="_路径_70" data-name="&lt;路径&gt;" class="cls-3" d="M62.07,19.71c.19-.25.3-.49.59-.54.06,0,.14-.08.17,0s0,.17-.08.21A4.16,4.16,0,0,1,62.07,19.71Z"/><path id="_路径_71" data-name="&lt;路径&gt;" class="cls-3" d="M65.71,17.9a.07.07,0,0,1,.08,0,0,0,0,0,1,0,.08s-.06,0-.07-.05S65.68,17.92,65.71,17.9Z"/><path id="_路径_72" data-name="&lt;路径&gt;" class="cls-3" d="M63.1,21l.06.05s-.07,0-.1,0S63.08,21.06,63.1,21Z"/><path id="_路径_73" data-name="&lt;路径&gt;" class="cls-3" d="M65.14,20s-.06,0-.09,0,.07-.08.12-.06S65.16,20,65.14,20Z"/></g><g id="重"><path id="_路径_74" data-name="&lt;路径&gt;" class="cls-3" d="M115,27.71c-.13.32-.17.66-.27,1a5.22,5.22,0,0,1-.5.58c-.46.34-.93.11-1.38,0a2.8,2.8,0,0,0-1.81,0c-.19.07-.2.11,0,.21.38.24.77.47,1.16.69a2.3,2.3,0,0,0,1,.33.66.66,0,0,1,.34.11.74.74,0,0,1,.2.17,6,6,0,0,1,.19,1.39.68.68,0,0,1-.42.61,1.2,1.2,0,0,1-.92.11,6.05,6.05,0,0,0-1.42-.26A4.26,4.26,0,0,0,109,33c-.15.08-.12.12,0,.21s.31.17.46.27.09.1.16.1l.06,0c.07,0,.1.1.17.1a2.1,2.1,0,0,0,.54.39.8.8,0,0,1,.46.69,5.33,5.33,0,0,1,0,1.31.45.45,0,0,1-.12.14,1.58,1.58,0,0,1-.84.09,4.3,4.3,0,0,1-1.65-.37,10.38,10.38,0,0,0-1.65-.53c-.17-.06-.34-.14-.51-.22a6.61,6.61,0,0,1-.67-.58v0h0c-.11-.16-.3-.25-.42-.4l-.65-.55c-.12-.06-.19-.18-.31-.23a4.58,4.58,0,0,1-.36-.32c-.09-.09-.19-.22-.11-.35a.34.34,0,0,1,.38-.21,3.61,3.61,0,0,1,.69.31,22.77,22.77,0,0,0,2.55,1c.31.1.61.25.93.35a.81.81,0,0,0,.54.05.64.64,0,0,0-.26-.22,7.76,7.76,0,0,0-1-.54c-.6-.3-1.25-.48-1.84-.82l-1.4-.81a3.68,3.68,0,0,1-.62-.43.46.46,0,0,1-.16-.31.94.94,0,0,0-.28-.62c0-.07-.1-.09-.13-.15a.24.24,0,0,1,0-.29.25.25,0,0,1,.31-.11,8.58,8.58,0,0,1,1.72.67,7.67,7.67,0,0,1,1,.51c.17.1.31,0,.32-.16s.09-.26.28-.21a.55.55,0,0,0,.17,0c.13,0,.32.1.38-.07a.57.57,0,0,0-.32-.6,7.6,7.6,0,0,0-1.11-.15l-1.12-.1c-.15,0-.16-.06-.1-.18a1,1,0,0,1,.81-.59c.12,0,.26,0,.34-.14s0-.16-.06-.19a1.81,1.81,0,0,0-.9-.08c-.07,0-.08.07-.1.12s0,.21-.06.32a1.16,1.16,0,0,1-.2.23l-.3.16a.49.49,0,0,1-.71-.29,1.37,1.37,0,0,1,0-.91.46.46,0,0,1,.31-.28.74.74,0,0,0,.28-.15c.16-.17.08-.36,0-.54a1.11,1.11,0,0,1,0-.43c0-.19.43-.29.61-.16a.72.72,0,0,1,.19.19.19.19,0,0,0,.32.05.39.39,0,0,0,.17-.47c-.15-.36-.07-.5.31-.54a1.88,1.88,0,0,1,.51,0,.33.33,0,0,1,.31.32.28.28,0,0,0,0,.08c.12.14.13,0,.17-.06a.45.45,0,0,1,.66-.2,2.08,2.08,0,0,0,.73.13.6.6,0,0,1,.46.28,1.64,1.64,0,0,1,.11.56c0,.18.1.2.23.19l1.21,0c.48,0,1-.05,1.45-.1a13.16,13.16,0,0,0,1.32-.23c.12,0,.25,0,.37-.07s.36,0,.44-.23.36-.17.49-.08.28.11.41.19a1.34,1.34,0,0,1,.29.25,2.87,2.87,0,0,0,.38.54C114.87,27.62,115,27.64,115,27.71Z"/><path id="_路径_75" data-name="&lt;路径&gt;" class="cls-3" d="M100.84,37.59a9.75,9.75,0,0,0-.82,1.23c-.36.57-.7,1.16-1.05,1.74l-.24.41a1.17,1.17,0,0,1-1.09.55,3,3,0,0,1-1.14-.19.46.46,0,0,1-.14-.12,1,1,0,0,1-.24-.58,8.12,8.12,0,0,0-.2-1.2c-.07-.27-.1-.54-.16-.81s.07-.31.12-.46a6,6,0,0,0,.2-1.37,2.93,2.93,0,0,0-.07-1c0-.13.09-.13.13-.2s.15,0,.21.11a5.89,5.89,0,0,1,.55,1c.11.31.19.63.3.94a5.8,5.8,0,0,1,.29.86c0,.12.19.14.3,0s.26-.3.38-.45.11-.12.13-.2l.13-.18c0-.06.1-.09.1-.16l.12-.15c0-.07.11-.11.13-.19l.19-.24a1.16,1.16,0,0,1,.22-.26l.3-.34c.15-.12.15-.12.07-.2L98,35.34c-.16-.08-.33-.15-.49-.24a1.69,1.69,0,0,0-.89-.22c-.28,0-.35-.06-.42-.33a12.18,12.18,0,0,1-.42-2.18c0-.16.05-.22.17-.24a4.6,4.6,0,0,1,1,0,2.48,2.48,0,0,1,.45,0,1.15,1.15,0,0,1,.25.08,1.26,1.26,0,0,1,.26.22,1.67,1.67,0,0,0,.35.3c.07,0,.09.1.17.1l1.13.69c.11.06.17.17.28.21l.68.56c.12.06.19.18.31.23a.71.71,0,0,0,.84,0,.86.86,0,0,1,.73-.12.36.36,0,0,0,.27,0,4.69,4.69,0,0,1-.56-1.11.92.92,0,0,1,0-.54.38.38,0,0,1,.55-.29c.14,0,.28.12.42.18a1.88,1.88,0,0,1,.32.27.38.38,0,0,0,.08.31,5.7,5.7,0,0,1,.53.9,3.28,3.28,0,0,0,.46.57.56.56,0,0,1,.15.43c0,.14.07.29,0,.43a.74.74,0,0,1-.17.2,1.49,1.49,0,0,1-.7,0,1.51,1.51,0,0,0-.32,0,.13.13,0,0,0-.13.12c0,.07,0,.1.1.13.55.24,1.06.56,1.59.84a.84.84,0,0,1,.5,1,.82.82,0,0,0,.11.54c.12.22.09.29-.12.42a4.3,4.3,0,0,1-.45.23.56.56,0,0,1-.57-.13,1,1,0,0,1-.3-.31,1.33,1.33,0,0,0-.63-.46,12.27,12.27,0,0,1-1.68-1,.48.48,0,0,0-.65,0A1.2,1.2,0,0,0,100.84,37.59Z"/><path id="_路径_76" data-name="&lt;路径&gt;" class="cls-3" d="M102,30.13c-.48.26-1,.38-1.51.64-.15-.08-.25-.23-.4-.3L100,30.4a1,1,0,0,1-.23-.2L99.51,30c-.37-.34-.24-.65.15-.87a6.64,6.64,0,0,1,1.27-.34,2.17,2.17,0,0,1,.88-.1.34.34,0,0,1,.32.25,1.59,1.59,0,0,1,0,1.08A.34.34,0,0,1,102,30.13Z"/><path id="_路径_77" data-name="&lt;路径&gt;" class="cls-3" d="M105.3,34.62l.67.58A2.48,2.48,0,0,1,105.3,34.62Z"/><path id="_路径_78" data-name="&lt;路径&gt;" class="cls-3" d="M114.21,29.28l.5-.58A1.92,1.92,0,0,1,114.21,29.28Z"/><path id="_路径_79" data-name="&lt;路径&gt;" class="cls-3" d="M104.85,34.19a2.36,2.36,0,0,1,.42.4C105.13,34.45,105,34.37,104.85,34.19Z"/><path id="_路径_80" data-name="&lt;路径&gt;" class="cls-3" d="M100.09,30.47c.17.05.26.21.4.3C100.32,30.72,100.22,30.57,100.09,30.47Z"/><path id="_路径_81" data-name="&lt;路径&gt;" class="cls-3" d="M100.84,37.59a.86.86,0,0,1,.3-.36Z"/><path id="_路径_82" data-name="&lt;路径&gt;" class="cls-3" d="M103.34,32.93l-.32-.27A.63.63,0,0,1,103.34,32.93Z"/><path id="_路径_83" data-name="&lt;路径&gt;" class="cls-3" d="M100.76,34.49a1,1,0,0,1-.31-.23C100.58,34.3,100.66,34.41,100.76,34.49Z"/><path id="_路径_84" data-name="&lt;路径&gt;" class="cls-3" d="M103.89,33.41a1.07,1.07,0,0,1,.31.23C104.07,33.61,104,33.49,103.89,33.41Z"/><path id="_路径_85" data-name="&lt;路径&gt;" class="cls-3" d="M114.46,27l-.29-.25A.5.5,0,0,1,114.46,27Z"/><path id="_路径_86" data-name="&lt;路径&gt;" class="cls-3" d="M108.13,26.56l-.26-.23A.39.39,0,0,1,108.13,26.56Z"/><path id="_路径_87" data-name="&lt;路径&gt;" class="cls-3" d="M108.25,34.05a.53.53,0,0,1,.26.22Z"/><path id="_路径_88" data-name="&lt;路径&gt;" class="cls-3" d="M99.77,33.7a1.21,1.21,0,0,1-.28-.21C99.61,33.52,99.68,33.63,99.77,33.7Z"/><path id="_路径_89" data-name="&lt;路径&gt;" class="cls-3" d="M97.84,32.39l-.26-.22A.44.44,0,0,1,97.84,32.39Z"/><path id="_路径_90" data-name="&lt;路径&gt;" class="cls-3" d="M99.18,36.68l-.22.26A.43.43,0,0,1,99.18,36.68Z"/><path id="_路径_91" data-name="&lt;路径&gt;" class="cls-3" d="M99.55,36.13c.1.06.1.08-.07.2C99.51,36.27,99.63,36.23,99.55,36.13Z"/><path id="_路径_92" data-name="&lt;路径&gt;" class="cls-3" d="M99.76,30.21l.23.2A.34.34,0,0,1,99.76,30.21Z"/><path id="_路径_93" data-name="&lt;路径&gt;" class="cls-3" d="M104.07,29.37l.2-.23A.35.35,0,0,1,104.07,29.37Z"/><path id="_路径_94" data-name="&lt;路径&gt;" class="cls-3" d="M113.7,30.75l-.2-.17A.27.27,0,0,1,113.7,30.75Z"/><path id="_路径_95" data-name="&lt;路径&gt;" class="cls-3" d="M106.28,26.35s0,.23-.17.06C106.2,26.48,106.24,26.4,106.28,26.35Z"/><path id="_路径_96" data-name="&lt;路径&gt;" class="cls-3" d="M104.41,35.78l.17-.2A.27.27,0,0,1,104.41,35.78Z"/><path id="_路径_97" data-name="&lt;路径&gt;" class="cls-3" d="M96.33,35.7c-.06,0-.1-.14-.21-.11C96.25,35.52,96.29,35.62,96.33,35.7Z"/><path id="_路径_98" data-name="&lt;路径&gt;" class="cls-3" d="M98.28,37.87a.48.48,0,0,1-.13.2C98.15,38,98.23,37.93,98.28,37.87Z"/><path id="_路径_99" data-name="&lt;路径&gt;" class="cls-3" d="M98.77,37.18a.43.43,0,0,1-.13.19C98.64,37.28,98.72,37.24,98.77,37.18Z"/><path id="_路径_100" data-name="&lt;路径&gt;" class="cls-3" d="M115,27.71c0-.06-.12-.08-.13-.16S115,27.62,115,27.71Z"/><path id="_路径_101" data-name="&lt;路径&gt;" class="cls-3" d="M109.55,33.55a.35.35,0,0,1-.16-.1C109.46,33.44,109.5,33.51,109.55,33.55Z"/><path id="_路径_102" data-name="&lt;路径&gt;" class="cls-3" d="M109.78,33.69c-.07,0-.12-.06-.17-.1S109.73,33.65,109.78,33.69Z"/><path id="_路径_103" data-name="&lt;路径&gt;" class="cls-3" d="M98.36,32.79a.32.32,0,0,1-.17-.1C98.27,32.69,98.31,32.76,98.36,32.79Z"/><path id="_路径_104" data-name="&lt;路径&gt;" class="cls-3" d="M98.52,37.52a.31.31,0,0,1-.1.16C98.42,37.61,98.48,37.58,98.52,37.52Z"/><path id="_路径_105" data-name="&lt;路径&gt;" class="cls-3" d="M102,30.13l.12-.14A.14.14,0,0,1,102,30.13Z"/><path id="_路径_106" data-name="&lt;路径&gt;" class="cls-3" d="M96.35,41.2l.14.12A.15.15,0,0,1,96.35,41.2Z"/><path id="_路径_107" data-name="&lt;路径&gt;" class="cls-3" d="M102.8,30.37a.32.32,0,0,1,.13.15S102.81,30.45,102.8,30.37Z"/><path id="_路径_108" data-name="&lt;路径&gt;" class="cls-3" d="M110.61,36.22l.12-.14A.15.15,0,0,1,110.61,36.22Z"/><path id="_路径_109" data-name="&lt;路径&gt;" class="cls-3" d="M110,30.65c.05.06.2.13.15.22s-.18,0-.28,0l-.13,0c-.07,0-.14-.06-.15-.13s.07-.13.13-.18.13,0,.19.05Z"/></g></g></g></g></svg>